<?xml version="1.0" encoding="UTF-8" standalone="no"?>
<!-- Created with Inkscape (http://www.inkscape.org/) -->

<svg
   xmlns:dc="http://purl.org/dc/elements/1.1/"
   xmlns:cc="http://creativecommons.org/ns#"
   xmlns:rdf="http://www.w3.org/1999/02/22-rdf-syntax-ns#"
   xmlns:svg="http://www.w3.org/2000/svg"
   xmlns="http://www.w3.org/2000/svg"
   xmlns:sodipodi="http://sodipodi.sourceforge.net/DTD/sodipodi-0.dtd"
   xmlns:inkscape="http://www.inkscape.org/namespaces/inkscape"
   id="svg3336"
   version="1.1"
   inkscape:version="0.91 r13725"
   width="600"
   height="338.75"
   viewBox="0 0 600 338.75"
   sodipodi:docname="canada.svg">
  <metadata
     id="metadata3342">
    <rdf:RDF>
      <cc:Work
         rdf:about="">
        <dc:format>image/svg+xml</dc:format>
        <dc:type
           rdf:resource="http://purl.org/dc/dcmitype/StillImage" />
        <dc:title></dc:title>
      </cc:Work>
    </rdf:RDF>
  </metadata>
  <defs
     id="defs3340" />
  <sodipodi:namedview
     pagecolor="#ffffff"
     bordercolor="#666666"
     borderopacity="1"
     objecttolerance="10"
     gridtolerance="10"
     guidetolerance="10"
     inkscape:pageopacity="0"
     inkscape:pageshadow="2"
     inkscape:window-width="1920"
     inkscape:window-height="1137"
     id="namedview3338"
     showgrid="false"
     inkscape:zoom="1.0103016"
     inkscape:cx="294.24031"
     inkscape:cy="153.38368"
     inkscape:window-x="-8"
     inkscape:window-y="-8"
     inkscape:window-maximized="1"
     inkscape:current-layer="svg3336" />
  <path
     style="fill:#000000"
     d="m 455.99999,335.99468 c 0,-0.96543 1.65834,-4.36835 3.68521,-7.56204 2.65993,-4.19121 4.45054,-5.95979 6.43607,-6.3569 3.86689,-0.77337 4.19847,-2.69765 1.07079,-6.21426 -3.08119,-3.46435 -6.84722,-5.11148 -11.68699,-5.11148 -2.96806,0 -4.39867,-1.11997 -12.13503,-9.5 -8.04231,-8.71144 -9.07773,-9.5 -12.47411,-9.5 -2.3868,0 -5.90561,1.24453 -9.89594,3.5 -6.45789,3.65022 -8.46301,4.17788 -9.5,2.5 -0.33992,-0.55 -1.21152,-1 -1.93689,-1 -1.57963,0 -6.85126,-2.33071 -11.25012,-4.97394 -1.75286,-1.05328 -5.12786,-2.46164 -7.5,-3.12969 -4.97185,-1.40019 -19.83089,-2.01286 -21.31299,-0.87879 -1.49399,1.14318 -19.52646,1.86862 -75.81664,3.0501 -31.29055,0.65676 -51.27135,0.70987 -52,0.13822 -0.65085,-0.51061 -2.92325,-1.19603 -5.04979,-1.52316 -2.85894,-0.4398 -4.74316,-1.61905 -7.23106,-4.5256 -1.85055,-2.16195 -4.58389,-4.23683 -6.0741,-4.61085 -6.82675,-1.71341 -12.42301,-9.05169 -9.29125,-12.18345 1.58816,-1.58816 -0.49527,-5.98357 -3.56999,-7.53161 -2.52985,-1.27371 -4.73468,-4.78263 -9.42011,-14.99187 -2.36448,-5.15203 -4.86495,-6.8089 -6.63092,-4.39379 -0.62514,0.85494 -2.34051,1.55443 -3.81192,1.55443 -2.19732,0 -2.99809,-0.75931 -4.48207,-4.25 -0.99372,-2.3375 -2.08609,-5.38706 -2.42749,-6.77679 -0.3414,-1.38974 -2.1691,-4.26722 -4.06157,-6.39442 -1.89247,-2.12719 -3.69112,-5.04013 -3.997,-6.47321 -0.69518,-3.25692 -7.94307,-12.69314 -9.49024,-12.35558 -0.63022,0.1375 -1.03335,-0.16352 -0.89585,-0.66894 0.35094,-1.28997 -6.76887,-7.74256 -12.91382,-11.70363 -5.29291,-3.41184 -10.04975,-5.00081 -18.83618,-6.29201 -6.66457,-0.97939 -11.37574,-3.17529 -14.93709,-6.96226 -3.9903,-4.24309 -9.48882,-4.4122 -12.13361,-0.37316 -3.25882,4.97678 -13.460369,14.39044 -15.231122,14.05479 -2.342006,-0.44393 -2.631081,-4.60794 -0.757807,-10.91594 1.706471,-5.74631 2.043332,-10.88885 0.713271,-10.88885 -5.093904,0 -11.847311,8.90237 -14.091845,18.57593 -1.014733,4.37333 -2.285765,6.17016 -9.182601,12.98126 -4.402665,4.34794 -8.675585,9.31882 -9.495377,11.04641 -0.819792,1.72758 -3.614109,5.37932 -6.209592,8.11496 -4.262123,4.49228 -5.386895,5.10664 -11.61618,6.34483 -6.093695,1.21123 -7.454258,1.92806 -11.679962,6.15377 -5.055951,5.05595 -6.854569,5.72102 -8.878081,3.28284 -0.996115,-1.20024 -0.982562,-1.81609 0.06782,-3.08172 1.383748,-1.66731 2.451522,-2.26984 16.5821,-9.35704 4.867544,-2.44132 10.255586,-5.48876 11.973427,-6.77209 3.15981,-2.36056 7.571226,-10.86774 8.874747,-17.11447 l 0.693903,-3.32533 -3.046339,1.57533 c -4.327297,2.23773 -6.697948,1.96093 -8.881826,-1.03705 l -1.902979,-2.61237 -4.122581,2.10318 c -2.267419,1.15675 -4.799013,1.84361 -5.625764,1.52636 -0.826752,-0.31725 -2.33195,-3.06312 -3.344885,-6.10193 -1.837309,-5.51192 -1.852104,-5.52561 -6.203746,-5.73665 -5.534571,-0.2684 -9.063877,-3.89259 -9.063877,-9.30753 0,-2.31972 -0.763646,-4.44265 -2.115819,-5.88197 -3.122479,-3.32373 -3.577006,-10.02205 -1.065355,-15.70005 2.841434,-6.42353 6.816647,-8.66815 15.359745,-8.67293 7.586988,-0.004 9.228767,-1.03104 10.236364,-6.40199 0.925507,-4.93338 -1.491918,-10.33198 -5.023426,-11.21834 -1.507157,-0.37827 -6.149311,-0.10749 -10.315898,0.60173 -15.3977245,2.62095 -14.7276673,2.6831 -15.5007106,-1.43758 -0.5066622,-2.70074 -1.3718484,-3.90006 -3.3583412,-4.65532 -3.1688529,-1.2048 -4.18049409,-2.57538 -4.20124609,-5.6919 -0.029801,-4.47549 2.74325609,-8.05376 7.24136529,-9.34405 7.5577976,-2.16795 13.7935716,-1.30254 20.9115616,2.90216 2.349498,1.38789 3.110507,1.43033 5.237309,0.2921 1.368607,-0.73246 2.734058,-1.97198 3.034337,-2.75449 0.574383,-1.49682 -1.973086,-7.28701 -3.215566,-7.30872 C 31.419334,104.70581 12.02449,88.488517 11.977758,86.971717 11.965528,86.574773 11.075535,85.125 9.9999943,83.75 c -4.2651051,-5.452625 -1.4245598,-11 5.6325737,-11 5.14044,0 9.59562,-4.433439 11.556394,-11.5 1.272227,-4.585062 1.613516,-4.973169 4.112538,-4.676686 3.16599,0.375612 10.036146,-3.467965 9.050216,-5.063233 -0.369357,-0.597632 -0.193567,-0.78037 0.398623,-0.414376 0.592217,0.36601 2.221255,-1.327899 3.694232,-3.841345 3.412552,-5.82308 8.752267,-8.546767 18.089534,-9.227125 7.647336,-0.557222 9.325414,0.02608 18.646064,6.481371 2.574097,1.782767 4.914037,3.241394 5.199868,3.241394 1.117708,0 10.20875,6.426768 11.719298,8.284773 1.541642,1.89625 2.091995,1.92253 15.255035,0.728437 17.25269,-1.565087 21.62066,-0.971502 26.14516,3.552992 2.9048,2.904804 4.13427,3.433798 7.9807,3.433798 2.50079,0 5.32829,0.422819 6.28333,0.939597 0.95504,0.516778 2.98985,1.204346 4.5218,1.527929 1.63277,0.344878 3.14143,1.524841 3.64582,2.8515 0.99841,2.626013 2.75036,4.174821 5.56881,4.923088 1.1,0.292038 2.7875,0.855178 3.75,1.251421 1.52712,0.628685 1.75,0.09402 1.75,-4.197985 0,-6.95495 3.50601,-10.573551 8.41821,-8.688561 0.86999,0.333844 1.58179,1.233844 1.58179,2 0,1.875093 0.72094,1.757683 3.72713,-0.606989 1.39842,-1.1 3.38775,-2 4.42073,-2 1.24091,0 2.63495,-1.557756 4.10876,-4.591307 2.11678,-4.356959 2.40317,-4.563309 5.61091,-4.042764 4.49742,0.729832 4.67402,1.034667 2.81315,4.855934 l -1.59638,3.278137 3.39549,0.834591 c 5.53555,1.360607 6.97414,-0.137525 6.99897,-7.288639 0.0204,-5.886365 1.4903,-8.801143 3.73778,-7.41212 1.31606,0.813364 4.87142,8.299356 6.42287,13.523659 2.2444,7.557719 5.86059,6.226471 5.86059,-2.157491 0,-3.833333 0.2963,-4.5 2,-4.5 2.43198,0 4.6737,5.640003 3.8753,9.75 -0.80505,4.144251 2.34912,3.570997 6.88682,-1.251644 2.06917,-2.199096 4.31917,-3.983406 5,-3.965135 0.68084,0.01827 2.89864,1.255772 4.92846,2.75 10.59701,7.800865 12.6204,9.07886 13.34255,8.427307 0.43314,-0.39079 0.49296,-0.195181 0.13294,0.434687 -0.90002,1.574617 1.57868,2.354785 7.48146,2.354785 2.74117,0 5.96687,0.510819 7.16821,1.135154 2.35548,1.224138 8.68426,7.659143 8.68426,8.830023 0,0.392586 -1.16035,1.242483 -2.57855,1.888659 -4.37646,1.99405 -2.22337,3.580537 6.56714,4.838934 6.99397,1.001214 8.78014,0.961065 11.12208,-0.25 3.48343,-1.801349 6.85634,-1.840367 9.41682,-0.108933 4.27816,2.892949 5.23599,2.674911 10.66555,-2.427876 6.48641,-6.096021 9.0494,-6.913296 12.64401,-4.031856 5.47943,4.392306 15.29632,8.445119 20.02306,8.266333 7.81024,-0.29542 12.1653,-2.125863 13.9469,-5.861929 1.86119,-3.902957 4.33315,-4.764009 10.29309,-3.585375 4.84798,0.958732 5.6275,2.369595 5.80022,10.497849 0.11095,5.221303 1.49851,6.838762 3.84971,4.487559 1.41081,-1.410808 1.4102,-1.863506 -0.006,-4.788603 -1.7409,-3.593587 -1.02929,-6.870219 2.25597,-10.389939 2.6297,-2.817374 4.11016,-7.21289 3.39249,-10.072346 C 394.61129,68.065143 389.5116,63.75 386.61439,63.75 c -4.47385,0 -7.93955,-4.762038 -6.49482,-8.924216 0.49174,-1.416681 1.27074,-7.421996 1.73112,-13.345143 0.92164,-11.857726 2.50646,-14.991264 8.21623,-16.245341 4.52793,-0.994502 6.38902,0.870895 10.39151,10.415592 2.07558,4.949608 4.62153,9.766492 5.65767,10.704186 1.49566,1.353552 1.88389,3.115515 1.88389,8.54991 0,6.590547 0.0907,6.845012 2.44098,6.845012 3.57843,0 3.94471,1.399193 2.53051,9.666666 -1.14018,6.665561 -1.10096,7.632439 0.36927,9.102667 2.02219,2.02219 3.20011,1.053863 6.12532,-5.035413 1.6585,-3.452426 2.6018,-4.289372 5.11052,-4.534346 2.80123,-0.273536 3.18164,0.05012 4.25,3.616019 1.48723,4.96391 1.47895,8.013284 -0.0371,13.681746 -1.1279,4.217074 -1.05547,4.67884 1.06092,6.764352 l 2.27142,2.238309 1.93908,-2.360784 c 1.32827,-1.617132 1.93908,-3.889936 1.93908,-7.215204 0,-3.967841 0.5479,-5.478443 3,-8.271231 3.3105,-3.770454 3.5416,-5.113049 1.85122,-10.755029 -1.40725,-4.69697 -0.0342,-6.897752 4.30334,-6.897752 4.25249,0 9.05796,2.293765 13.82149,6.597328 3.96482,3.581978 4.16037,4.01595 3.53599,7.84717 -0.83032,5.094879 -0.82655,11.72403 0.01,17.602985 0.56833,3.993895 0.25341,5.18081 -2.58696,9.749997 -2.54428,4.0929 -3.78871,5.20579 -5.83459,5.21783 -1.43028,0.008 -3.25763,0.43095 -4.06076,0.93895 -1.2597,0.7968 -1.22537,1.18316 0.25,2.81343 0.94063,1.03939 1.71024,2.56686 1.71024,3.39438 0,4.36715 -4.4142,2.67947 -7.00846,-2.67954 -2.24223,-4.63184 -3.66538,-5.64209 -6.79511,-4.82365 -1.4673,0.38371 -2.17156,1.68962 -2.65702,4.92685 -0.36329,2.42262 -1.72567,5.67061 -3.0275,7.21775 -1.64785,1.95835 -2.0902,3.25102 -1.45597,4.25476 2.01679,3.19178 -2.10334,13.82639 -6.20773,16.023 -1.05807,0.56626 -2.75452,0.76588 -3.76991,0.44361 -1.39549,-0.44291 -2.00854,0.0611 -2.51138,2.06455 -0.62465,2.48879 -0.92109,2.60958 -4.85902,1.97988 l -4.19379,-0.67061 2.24294,2.08962 c 3.01263,2.80669 2.82393,4.65992 -0.65783,6.4604 -1.59543,0.82503 -4.91667,3.87409 -7.38053,6.77568 -5.19404,6.11684 -9.23016,17.66952 -10.33816,29.59114 -0.57061,6.13958 -0.43987,7.18449 0.89895,7.18449 0.86167,0 2.92921,1.36253 4.59452,3.02785 2.5525,2.5525 3.07481,3.92619 3.32693,8.75 l 0.2991,5.72215 5.77526,-0.33819 c 4.94144,-0.28937 6.67171,0.12835 11.98417,2.89319 3.4149,1.77726 7.34103,3.99037 8.72474,4.91802 12.79804,8.57996 17.08176,10.8862 22.20848,11.9564 l 5.69264,1.18834 -0.081,5.70984 c -0.0901,6.35579 1.84124,10.83911 9.03775,20.97969 3.29578,4.64407 7.02297,4.18002 9.03368,-1.12473 1.29336,-3.41217 1.26333,-4.40001 -0.28284,-9.30503 -2.71658,-8.61799 -2.44714,-10.68862 1.88595,-14.49312 5.57713,-4.89675 7.52117,-10.2975 7.52117,-20.89451 l 0,-8.84429 -3.699,-3.04903 -3.69899,-3.04902 1.18653,-7.27378 c 0.79379,-4.86616 0.87626,-8.59597 0.24915,-11.26832 -1.37304,-5.85109 -0.1336,-18.81862 2.15903,-22.58854 1.61898,-2.6622 2.30805,-3.02951 4.60362,-2.45391 1.48481,0.3723 5.84966,1.0634 9.69966,1.53578 8.11812,0.99606 13.76975,3.51744 18,8.0304 1.65,1.76027 4.8,3.99458 7,4.96513 6.65469,2.93577 8.6969,5.94459 9.42478,13.88564 0.74836,8.16442 3.13287,11.03122 9.22163,11.08677 2.94379,0.0269 4.24443,-0.64784 6.75,-3.50153 1.70697,-1.94413 3.10359,-4.61904 3.10359,-5.94423 0,-1.32519 1.05717,-3.63848 2.34927,-5.14063 l 2.34927,-2.73119 2.91635,2.07662 c 4.72276,3.36291 12.31568,17.93793 13.52411,25.96029 1.44691,9.60548 3.23069,14.41315 7.86866,21.20779 3.62322,5.308 4.55286,6.04114 9.01905,7.11256 5.57885,1.33834 6.7162,2.39351 4.91688,4.56156 -1.42131,1.71257 -1.66882,1.3998 3.80641,4.81003 4.24694,2.64518 4.25,2.65149 4.25,8.75292 l 0,6.10582 -6.7458,6.63163 c -3.71019,3.6474 -7.87269,7.22742 -9.25,7.95561 -4.23397,2.23853 -10.94768,3.35826 -24.58809,4.10086 -12.81261,0.69754 -13.18343,0.78346 -17.88464,4.14373 -2.64041,1.88729 -6.23882,4.86259 -7.99646,6.61178 -4.78823,4.76521 -11.53501,16.99244 -11.53501,20.90495 0,7.33168 -2.76977,9.41747 -14.5,10.91929 -5.94344,0.76093 -10.33304,2.25587 -12.79797,4.35851 -2.05268,1.75097 -1.92541,1.71149 -10.91495,3.38626 -3.69211,0.68785 -7.29211,1.96511 -8,2.83834 -1.64554,2.02989 -12.07083,5.9123 -15.87606,5.9123 -2.10909,0 -2.91102,-0.48355 -2.91102,-1.75532 z m -30,-213.75938 c 0,-0.62336 -6.20607,-4.47629 -7.21862,-4.48156 -1.49497,-0.008 0.58793,3.20044 2.60772,4.01655 2.44583,0.98827 4.6109,1.20662 4.6109,0.46501 z m 106.81326,39.53215 c -1.4777,-0.44585 -2.8557,-0.64168 -3.06221,-0.43516 -0.20652,0.20651 -2.85142,-2.20252 -5.87756,-5.35341 -15.92973,-16.58639 -20.79277,-19.44732 -31.53072,-18.54951 -6.27105,0.52432 -7.60207,0.32349 -10.75,-1.62204 -4.03994,-2.49682 -4.59614,-5.21634 -2.06709,-10.10699 0.83912,-1.62269 1.62662,-3.00759 1.75,-3.07756 0.12338,-0.07 5.17432,-0.40747 11.22432,-0.75 l 11,-0.62278 -0.13842,-4.5 c -0.0761,-2.475 -0.45439,-5.67629 -0.84057,-7.11397 -0.54805,-2.04028 -0.14252,-3.17361 1.84775,-5.16388 4.84843,-4.848427 4.45464,-10.75074 -1.25426,-18.799777 -1.43797,-2.027419 -3.2895,-4.694994 -4.1145,-5.927945 -2.67957,-4.004587 -8.42286,-10.636521 -11.77726,-13.599546 -1.8025,-1.592185 -6.44312,-5.932382 -10.31251,-9.644882 -4.84872,-4.65213 -7.81115,-6.75 -9.53175,-6.75 -1.49921,0 -2.23559,0.422185 -1.84335,1.056835 0.35923,0.58126 0.36845,2.191205 0.0205,3.577657 -0.61886,2.465725 -0.7903,2.509712 -7.84414,2.012557 -3.9663,-0.279544 -12.18179,-1.109554 -18.25664,-1.844465 -10.01774,-1.211908 -11.57584,-1.688439 -16.75,-5.122848 -3.13768,-2.082654 -5.70485,-4.168141 -5.70485,-4.634414 0,-0.466274 1.575,-1.777043 3.5,-2.912821 3.74577,-2.210057 4.37626,-3.582273 2.05517,-4.472956 -0.79465,-0.304937 -1.74702,-2.165276 -2.11637,-4.134086 -0.38024,-2.026826 -1.52126,-4.034404 -2.63033,-4.627964 -1.65542,-0.885955 -1.85422,-1.69484 -1.28361,-5.222902 0.37135,-2.296026 1.50108,-5.074593 2.5105,-6.174593 1.00943,-1.1 3.60107,-3.991703 5.7592,-6.426007 3.72894,-4.2061304 4.24115,-4.4489561 10.3104,-4.8879666 3.5126,-0.2540779 7.28845,-1.0448804 8.39079,-1.7573388 3.40551,-2.2010332 15.6773,-4.59659566 20.17797,-3.93891925 5.68321,0.83047845 11.08124,4.70428245 18.00395,12.92022765 3.20228,3.800498 6.49733,7.264241 7.32233,7.697208 0.825,0.432966 3.8822,1.927293 6.79378,3.320726 10.70982,5.125542 20.37199,14.527624 24.48103,23.82207 1.15498,2.6125 2.46564,4.75 2.91258,4.75 0.44693,0 0.81261,0.675 0.81261,1.5 0,0.825 0.40598,1.5 0.90217,1.5 0.4962,0 1.35247,1.291716 1.90283,2.87048 0.771,2.211685 1.82533,3.025189 4.59389,3.544573 1.97627,0.370751 4.8325,1.750619 6.34717,3.066374 2.33016,2.024155 2.57443,2.687108 1.58739,4.30823 -1.59078,2.612715 1.00436,6.483281 7.8854,11.760808 2.90463,2.227756 5.8682,5.265256 6.58572,6.75 0.71751,1.484744 1.69511,2.699535 2.17244,2.699535 0.47734,0 1.36584,1.508827 1.97446,3.35295 0.60861,1.844122 2.20464,4.384534 3.54673,5.64536 1.34209,1.26083 2.25703,2.58872 2.0332,2.95088 -0.22383,0.36216 0.003,2.48217 0.50361,4.71113 0.74406,3.31155 0.49315,5.1304 -1.37209,9.94617 -3.59623,9.28493 -8.72559,10.4478 -12.97659,2.9419 -2.28268,-4.03047 -7.20272,-8.36534 -8.2762,-7.29185 -0.69552,0.69552 2.95491,12.61491 5.18302,16.92359 0.79047,1.5286 3.51663,4.77183 6.05814,7.20718 4.49677,4.30894 4.60811,4.56129 4.14389,9.39254 -0.53183,5.53482 -3.92795,11.22015 -6.70234,11.22015 -0.97403,0 -3.81208,-2.25 -6.30677,-5 -3.0364,-3.34715 -5.32094,-4.99494 -6.91093,-4.98469 -1.34705,0.009 -1.89887,0.33333 -1.27484,0.75 3.0973,2.06813 4.35081,8.589 2.36452,12.30043 -1.13147,2.11416 -1.23526,2.13334 -5.15156,0.95171 z"
     id="path3348"
     inkscape:connector-curvature="0" />
</svg>
