<?xml version="1.0" encoding="UTF-8" standalone="no"?>
<!-- Created with Inkscape (http://www.inkscape.org/) -->

<svg
   xmlns:dc="http://purl.org/dc/elements/1.1/"
   xmlns:cc="http://creativecommons.org/ns#"
   xmlns:rdf="http://www.w3.org/1999/02/22-rdf-syntax-ns#"
   xmlns:svg="http://www.w3.org/2000/svg"
   xmlns="http://www.w3.org/2000/svg"
   xmlns:sodipodi="http://sodipodi.sourceforge.net/DTD/sodipodi-0.dtd"
   xmlns:inkscape="http://www.inkscape.org/namespaces/inkscape"
   id="svg3336"
   version="1.1"
   inkscape:version="0.91 r13725"
   width="267.5"
   height="341.25"
   viewBox="0 0 267.5 341.25"
   sodipodi:docname="europe.svg">
  <metadata
     id="metadata3342">
    <rdf:RDF>
      <cc:Work
         rdf:about="">
        <dc:format>image/svg+xml</dc:format>
        <dc:type
           rdf:resource="http://purl.org/dc/dcmitype/StillImage" />
        <dc:title></dc:title>
      </cc:Work>
    </rdf:RDF>
  </metadata>
  <defs
     id="defs3340" />
  <sodipodi:namedview
     pagecolor="#ffffff"
     bordercolor="#666666"
     borderopacity="1"
     objecttolerance="10"
     gridtolerance="10"
     guidetolerance="10"
     inkscape:pageopacity="0"
     inkscape:pageshadow="2"
     inkscape:window-width="1920"
     inkscape:window-height="1137"
     id="namedview3338"
     showgrid="false"
     inkscape:zoom="1.418315"
     inkscape:cx="173.66093"
     inkscape:cy="78.561734"
     inkscape:window-x="-8"
     inkscape:window-y="-8"
     inkscape:window-maximized="1"
     inkscape:current-layer="svg3336" />
  <path
     style="fill:#000000"
     d="m 25.933347,337.70656 c -2.607044,-2.60704 -4.107739,-3.41758 -5.326455,-2.87684 -0.933224,0.41407 -3.046771,0.79052 -4.696771,0.83657 -2.485401,0.0693 -3.048251,-0.34512 -3.281293,-2.41629 -0.154711,-1.375 -1.196129,-4.53501 -2.314261,-7.02224 l -2.0329692,-4.52225 2.5213012,-7.72379 c 2.341716,-7.17365 2.4198,-8.01148 1.096265,-11.76278 -1.504514,-4.26424 -1.009694,-9.89353 0.885957,-10.07903 0.61875,-0.0605 7.951104,-0.0187 16.294121,0.0931 8.343016,0.11173 16.071676,-0.0833 17.1748,-0.43343 2.391113,-0.75895 8.156079,-13.81916 8.156079,-18.47718 0,-2.08989 -1.095546,-4.27928 -3.439603,-6.87387 -2.623638,-2.90405 -3.604996,-5.05402 -4.136795,-9.06291 -0.616362,-4.64637 -0.453702,-5.42624 1.403033,-6.72674 1.695713,-1.18773 1.923321,-1.93635 1.181742,-3.88685 -0.757122,-1.99138 -0.567609,-2.52715 1.078743,-3.04968 1.098474,-0.34864 3.665748,-0.35247 5.705053,-0.009 4.340312,0.73206 5.930377,-0.25372 9.619633,-5.96384 1.421401,-2.2 5.150837,-6.04597 8.287636,-8.5466 3.835095,-3.05731 6.464757,-6.16915 8.027979,-9.5 5.906176,-12.58465 5.216732,-11.82093 12.166392,-13.47717 8.155686,-1.94367 9.693906,-3.92128 8.308416,-10.68171 -1.25146,-6.1064 -0.0142,-15.57705 2.71142,-20.75429 2.59815,-4.93517 4.42945,-6.05427 6.50719,-3.97653 2.37111,2.37111 2.93154,5.97978 1.69271,10.89962 -2.80118,11.12449 -0.38295,18.70076 6.37358,19.96829 1.93208,0.36246 3.51287,1.14488 3.51287,1.7387 0,0.70374 1.13165,0.82117 3.25,0.33723 1.7875,-0.40835 6.4,-0.82182 10.25,-0.91882 5.39063,-0.13581 7.96075,-0.73676 11.17882,-2.61382 l 4.17882,-2.43746 5.57435,1.89478 c 3.06589,1.04213 5.68542,1.7087 5.82118,1.48128 0.13576,-0.22743 1.01415,-1.7635 1.952,-3.4135 0.95512,-1.68042 2.38467,-2.87075 3.25,-2.70616 1.99893,0.38021 1.96223,-1.22717 -0.0999,-4.37436 -1.36959,-2.09026 -1.43563,-2.90083 -0.39479,-4.84566 0.68746,-1.28452 0.94845,-3.28537 0.57997,-4.44633 -0.51529,-1.62355 0.18377,-2.89293 3.02821,-5.49879 2.07608,-1.90194 3.39444,-3.87937 3.00572,-4.50833 -1.43397,-2.32022 1.70012,-0.99971 4.66565,1.96582 2.71695,2.71696 3.38064,2.95204 5.54725,1.96487 2.2542,-1.02709 2.41006,-1.51761 1.85436,-5.8362 -1.94879,-15.1448 -1.95688,-14.84327 0.45844,-17.09348 2.39926,-2.23475 4.89992,-2.80704 4.89992,-1.12089 0,0.55 2.18026,1 4.84501,1 6.91117,0 7.83876,1.43789 8.38643,13 0.55207,11.65493 1.87062,14.68617 7.42372,17.06651 5.25574,2.25287 7.511,5.60734 8.13483,12.09971 0.45163,4.70018 0.79834,5.25094 4.97169,7.89759 5.14362,3.262 8.31395,7.07765 6.4084,7.71283 -4.8342,1.6114 -5.4072,6.64597 -1.02659,9.01987 1.72892,0.93692 6.34142,4.9071 10.25,8.82261 6.90919,6.92146 7.32864,7.1685 15.10651,8.89733 4.4,0.978 8.5625,2.47291 9.25,3.322 1.42842,1.76416 1.71089,15.88586 0.36039,18.01717 -0.47244,0.74559 -2.87816,1.73285 -5.34606,2.1939 -2.46789,0.46105 -6.68696,1.87978 -9.3757,3.15274 -4.2597,2.0167 -4.93016,2.74786 -5.21147,5.68326 -0.17757,1.85284 0.15993,3.85157 0.75,4.44164 1.98453,1.98453 1.09755,3.48247 -3.33172,5.62664 -2.87729,1.39287 -5.2921,1.90945 -6.96417,1.48979 -3.28113,-0.82351 -4.33986,-4.00313 -2.1417,-6.43207 2.00115,-2.21124 0.86561,-5.07747 -3.02034,-7.62364 -6.47411,-4.242 -16.83712,2.79111 -24.46923,16.60662 -0.825,1.49341 -2.23306,3.43329 -3.12903,4.31085 -0.89596,0.87756 -1.93306,3.62303 -2.30466,6.10105 -1.60079,10.67482 -5.45452,14.5138 -14.61631,14.56033 -3.71715,0.0189 -7.069,0.55227 -7.75,1.23327 -1.79936,1.79936 -1.4517,4.26224 0.90238,6.39265 3.60491,3.2624 4.88951,6.61974 3.51532,9.18742 -2.97365,5.55633 -9.90181,6.54919 -13.16731,1.88699 -4.30069,-6.14013 -6.48967,-9.98524 -7.08367,-12.44298 -0.36211,-1.49824 -1.49275,-3.91855 -2.51255,-5.37845 -1.01979,-1.4599 -1.86157,-3.4849 -1.87062,-4.5 -0.0322,-3.61196 -4.57163,-9.87482 -9.50536,-13.11411 -2.73801,-1.79767 -7.53473,-5.74023 -10.65939,-8.76124 -6.47417,-6.25943 -10.71891,-7.77564 -13.84594,-4.94572 -4.15768,3.76265 -1.25062,9.69504 8.5868,17.52291 3.54647,2.82201 6.19481,5.54079 5.88521,6.04173 -0.3096,0.50094 0.70919,0.9108 2.26398,0.9108 2.82281,0 9.77599,4.0189 11.92991,6.89542 1.87344,2.50197 0.48962,4.29169 -2.76555,3.57673 -2.46748,-0.54195 -2.87321,-0.32814 -2.87321,1.51414 0,2.53631 -1.7035,6.01371 -2.94598,6.01371 -0.48158,0 -1.82178,-1.95453 -2.97821,-4.3434 -2.20183,-4.54838 -8.00117,-9.88083 -13.05865,-12.00734 -3.55151,-1.4933 -12.83361,-11.94214 -16.13213,-18.1599 -3.3543,-6.32293 -6.36608,-6.77471 -12.94899,-1.9424 -3.070008,2.25359 -4.846934,4.24286 -4.529311,5.07057 0.856901,2.23305 -3.875093,2.71978 -9.211075,0.94746 -6.70429,-2.22681 -11.059572,-0.63013 -10.285498,3.77074 0.467149,2.6559 -4.447554,7.65428 -10.414457,10.59177 -7.582612,3.73291 -8.676429,5.42772 -10.472719,16.22694 -1.117348,6.71745 -1.655727,7.93581 -4.398091,9.95295 -1.718689,1.26419 -3.945049,3.33219 -4.947468,4.59556 -1.165597,1.46904 -2.890506,2.29705 -4.785183,2.29705 -1.629432,0 -3.959271,0.62814 -5.17742,1.39587 -4.797568,3.02364 -6.373924,2.87836 -10.191591,-0.93931 z M 143.39006,305.72583 c -0.69572,-0.83829 -1.52528,-1.26382 -1.84348,-0.94562 -0.3182,0.31819 0.0834,0.99718 0.8925,1.50885 2.11697,1.33881 2.39358,1.17499 0.95098,-0.56323 z m -13.31327,27.8575 c -1.2261,-1.22609 -0.68488,-4.00729 1.08333,-5.56705 1.85673,-1.63784 11.25,-4.00317 11.25,-2.83288 0,0.38002 -0.9105,2.57546 -2.02334,4.87877 -1.85059,3.83029 -2.34862,4.18783 -5.83333,4.18783 -2.0955,0 -4.11,-0.3 -4.47666,-0.66667 z M 36.722958,235 c -2.942062,-3.25163 -4.240149,-7.77056 -3.016181,-10.5 0.554935,-1.2375 1.390206,-2.25 1.856158,-2.25 0.465952,0 0.847186,-1.535 0.847186,-3.41111 0,-2.56883 0.747015,-4.03967 3.025325,-5.95675 2.971446,-2.5003 3.011357,-2.65772 2.24097,-8.83889 l -0.784355,-6.29325 -4.24097,0.33599 -4.24097,0.33599 0,-3.58599 c 0,-1.9723 -0.476558,-3.58599 -1.059017,-3.58599 -0.582459,0 -0.762301,-0.4801 -0.399648,-1.06688 0.362653,-0.58679 0.05171,-0.98347 -0.690983,-0.88152 -3.425747,0.47026 -4.00947,-0.0507 -3.361693,-2.99996 0.484693,-2.2068 0.07024,-3.72925 -1.647818,-6.05304 -2.792337,-3.77684 -2.985667,-9.06629 -0.521196,-14.25977 1.446034,-3.04729 2.308978,-3.73883 4.665554,-3.73883 1.816054,0 4.112913,-1.11571 6.175944,-3 2.906271,-2.65447 7.584065,-4.23611 6.654498,-2.25 -0.193064,0.4125 -1.236187,3.1125 -2.318052,6 -1.081865,2.8875 -2.311404,5.25 -2.732308,5.25 -0.420905,0 -0.765281,0.41957 -0.765281,0.93239 0,0.51281 1.875966,0.74576 4.168812,0.51765 2.292847,-0.2281 4.767847,0.0824 5.5,0.69006 2.080742,1.72686 1.569665,5.85846 -1.168812,9.44879 -2.762532,3.62186 -3.300168,7.41111 -1.051522,7.41111 2.099356,0 6.290829,4.18413 7.574982,7.56171 0.608255,1.59983 1.718123,5.61542 2.466374,8.92353 1.734845,7.66997 3.704947,12.94854 5.681301,15.22212 2.073293,2.38509 3.033071,8.87827 1.500351,10.15032 -0.650471,0.53984 -2.530157,1.31487 -4.17708,1.72228 -1.646923,0.4074 -5.767191,2.01858 -9.156151,3.58039 -7.43372,3.42584 -8.411908,3.47816 -11.025418,0.58965 z M 4.4482763,223.28816 C 2.1034416,220.94332 1.7305814,217.25 3.8386926,217.25 c 0.7857143,0 2.1542578,-0.72569 3.0412078,-1.61264 1.4590536,-1.45905 1.4658563,-1.83665 0.071429,-3.96481 -2.5967825,-3.96319 -2.0052512,-6.25109 1.7087918,-6.60919 2.7295378,-0.26318 3.2099808,-0.68424 3.0001058,-2.6293 -0.355171,-3.29162 1.170569,-5.6447 5.202515,-8.0236 l 3.504297,-2.06759 2.912393,2.45062 c 3.710465,3.12215 4.793594,7.06653 2.604661,9.48527 -1.241561,1.37191 -1.465344,2.84597 -0.951876,6.27002 0.85076,5.67327 -1.280014,9.24319 -6.964403,11.66823 -7.187144,3.06613 -11.2061318,3.38455 -13.5195377,1.07115 z M 128.36998,185.20703 c -2.06222,-2.20762 -3.30675,-5.15869 -4.53347,-10.75 -1.8499,-8.43167 -3.56769,-12.51206 -6.71768,-15.95703 -2.78043,-3.04081 -4.50812,-2.83675 -8.46664,1 -2.98793,2.89601 -3.9734,3.24931 -9.047611,3.24366 -7.906762,-0.009 -11.018513,-1.87688 -13.315344,-7.99366 -2.024551,-5.39166 -2.482901,-12.00881 -0.899593,-12.98734 0.624452,-0.38594 0.571424,-1.25885 -0.146289,-2.40809 -1.422806,-2.27827 -0.27759,-7.10457 1.68582,-7.10457 0.814521,0 1.427659,-0.3375 1.362527,-0.75 -0.667141,-4.22523 5.817732,-12.03642 13.07828,-15.7531 9.53412,-4.88053 16.81762,-15.37403 23.51308,-33.875816 7.47413,-20.653535 8.41829,-23.342847 9.93873,-28.308981 1.88587,-6.159729 1.98273,-8.013971 0.44539,-8.526416 -1.77386,-0.591288 1.89761,-7.474805 5.26623,-9.873475 1.58219,-1.12662 2.87671,-2.669396 2.87671,-3.42839 0,-0.758994 2.23475,-4.065314 4.96611,-7.347377 5.96319,-7.165503 13.44925,-10.660762 21.03389,-9.820776 6.09366,0.674863 9.38084,-0.97034 16.42204,-8.2190756 6.09741,-6.27712706 8.37818,-7.24716951 10.63786,-4.5244222 0.91794,1.1060504 2.45253,1.439593 5.17601,1.1250008 2.27005,-0.2622155 4.37019,0.051782 5.07757,0.7591606 0.66348,0.6634818 2.45082,1.5186777 3.97186,1.9004353 5.96526,1.4971848 8.48885,7.0252951 4.97802,10.9047191 -0.95516,1.055433 -1.80751,3.340866 -1.89413,5.078741 -0.0866,1.737875 -0.45675,6.597997 -0.82252,10.800272 -0.49431,5.678904 -0.29025,8.537531 0.79482,11.134472 1.0066,2.409127 1.45344,7.178105 1.43913,15.3595 -0.0187,10.670213 0.29357,12.798858 3.0993,21.130409 2.26131,6.714911 3.12185,11.118585 3.12663,16 0.005,5.038899 0.50696,7.490659 1.99341,9.735119 2.76522,4.17534 2.51821,6.27505 -1.47571,12.54424 -5.945,9.33177 -8.95279,16.20489 -8.64407,19.75262 0.42903,4.93042 -3.0601,8.4473 -4.16997,4.20314 -0.66696,-2.55045 -6.63,-2.75392 -10.29678,-0.35135 -1.82234,1.19405 -2.81798,1.34684 -3.61071,0.55411 -0.79273,-0.79273 -2.132,-0.56528 -4.85689,0.82485 -2.06929,1.05568 -5.53201,2.20239 -7.69494,2.54825 -3.74106,0.59823 -4.04876,0.44123 -6.31764,-3.2235 -5.45175,-8.80575 -6.6134,-16.03268 -3.87373,-24.09953 2.52711,-7.44096 6.22767,-14.4152 11.21889,-21.143642 C 190.74086,87.852332 189.51421,79.25 181.10629,79.25 c -3.87361,0 -8.58474,4.399643 -10.70798,10 -3.11067,8.204842 -6.42528,13.44341 -11.94448,18.87758 -6.44184,6.3426 -7.42715,8.73862 -8.56046,20.81681 -0.74562,7.94634 0.38124,12.96801 3.5544,15.83968 1.42773,1.29208 1.96235,3.07642 1.96235,6.54949 0,5.02415 -0.97363,6.60636 -5.83091,9.47563 -2.12859,1.25739 -3.05612,2.92019 -4.06367,7.28504 -0.71805,3.11067 -1.62946,6.10577 -2.02535,6.65577 -0.3959,0.55 -1.32614,2.92232 -2.0672,5.27181 -0.91536,2.9021 -2.37369,4.9061 -4.54816,6.25 -4.25407,2.62916 -5.16016,2.51572 -8.50485,-1.06478 z"
     id="path3348"
     inkscape:connector-curvature="0" />
</svg>
