<?xml version="1.0" encoding="UTF-8" standalone="no"?>
<!-- Created with Inkscape (http://www.inkscape.org/) -->

<svg
   xmlns:dc="http://purl.org/dc/elements/1.1/"
   xmlns:cc="http://creativecommons.org/ns#"
   xmlns:rdf="http://www.w3.org/1999/02/22-rdf-syntax-ns#"
   xmlns:svg="http://www.w3.org/2000/svg"
   xmlns="http://www.w3.org/2000/svg"
   xmlns:sodipodi="http://sodipodi.sourceforge.net/DTD/sodipodi-0.dtd"
   xmlns:inkscape="http://www.inkscape.org/namespaces/inkscape"
   id="svg3336"
   version="1.1"
   inkscape:version="0.91 r13725"
   width="185"
   height="257.5"
   viewBox="0 0 185 257.5"
   sodipodi:docname="iceland.svg">
  <metadata
     id="metadata3342">
    <rdf:RDF>
      <cc:Work
         rdf:about="">
        <dc:format>image/svg+xml</dc:format>
        <dc:type
           rdf:resource="http://purl.org/dc/dcmitype/StillImage" />
        <dc:title></dc:title>
      </cc:Work>
    </rdf:RDF>
  </metadata>
  <defs
     id="defs3340" />
  <sodipodi:namedview
     pagecolor="#ffffff"
     bordercolor="#666666"
     borderopacity="1"
     objecttolerance="10"
     gridtolerance="10"
     guidetolerance="10"
     inkscape:pageopacity="0"
     inkscape:pageshadow="2"
     inkscape:window-width="1920"
     inkscape:window-height="1137"
     id="namedview3338"
     showgrid="false"
     inkscape:zoom="1.3290861"
     inkscape:cx="237.3886"
     inkscape:cy="27.652124"
     inkscape:window-x="-8"
     inkscape:window-y="-8"
     inkscape:window-maximized="1"
     inkscape:current-layer="svg3336" />
  <path
     style="fill:#000000"
     d="m 82.573669,252.5007 c -2.709485,-2.42795 -6.187122,-4.69137 -7.728083,-5.02983 -1.564431,-0.3436 -6.115851,-3.80293 -10.306129,-7.83321 -5.937218,-5.71052 -7.903426,-8.35756 -9.415199,-12.67536 -1.050948,-3.00163 -2.907976,-7.70751 -4.126728,-10.45751 -5.220939,-11.78056 -6.997524,-18.66805 -6.997524,-27.1281 0,-9.23686 1.095783,-12.63888 4.582684,-14.22762 3.039848,-1.38505 3.989712,-5.29043 2.497834,-10.26987 -1.020607,-3.40648 -1.903519,-4.2636 -6.474048,-6.2849 l -5.292275,-2.3405 -0.65869,-8.56932 C 37.913232,138.0277 35.616719,127.12956 33.286322,122.20491 31.141358,117.67212 25.478559,115.01826 15.888555,114.05149 4.7454579,112.92815 2.6907848,110.47726 7.0198959,103.47261 l 2.0198904,-3.26825 -4.074064,-3.22672 C 1.7775825,94.452587 0.95780232,93.182384 1.195832,91.136408 c 0.4241054,-3.645383 3.09766,-3.834006 8.978189,-0.633421 3.410817,1.856399 5.718786,2.494543 7.450267,2.059969 3.696807,-0.927839 2.593308,-3.650469 -2.124282,-5.241174 C 5.9196497,84.09142 -0.00380838,74.008607 4.8356716,69.169127 7.0436595,66.961139 17.807585,65.316309 23.109557,66.376703 c 6.798415,1.359683 9.875339,-3.919421 9.921874,-17.023039 0.03469,-9.768816 0.573978,-10.678143 7.804573,-13.159815 4.617672,-1.584869 12.466052,-7.520014 16.232278,-12.275262 5.772731,-7.288667 10.634596,-8.39054 21.213269,-4.807689 6.824559,2.311383 14.027427,2.155713 21.642033,-0.467731 4.600086,-1.584857 18.031136,-10.3567618 18.758006,-12.2509777 0.77058,-2.0081023 7.9887,-4.3873959 13.31014,-4.3873959 7.31457,0 14.61053,3.6239567 20.54529,10.2049926 9.87659,10.952106 14.23003,11.39821 22.03848,2.25832 2.5671,-3.004822 5.27196,-5.4633126 6.0108,-5.4633126 2.45046,0 3.65076,4.0269546 3.09567,10.3857776 -1.06488,12.198558 -3.06561,18.816136 -10.40466,34.414292 -1.22768,2.609269 -1.31455,3.822763 -0.415,5.797053 1.76802,3.880385 1.39623,5.687202 -2.21559,10.767308 -1.84431,2.594062 -3.94847,6.519879 -4.67591,8.724038 l -1.32261,4.007561 4.6759,4.292947 c 4.90645,4.50461 5.93989,7.804283 2.96557,9.468796 -1.56746,0.877197 -1.47215,1.427923 1.14095,6.592624 2.42194,4.78687 2.67949,6.01255 1.71034,8.13959 -0.62752,1.37726 -1.14095,4.20278 -1.14095,6.27892 0,3.87406 -2.51534,12.65208 -4.26417,14.88109 -0.53939,0.6875 -2.24906,1.25 -3.79926,1.25 -3.32795,0 -4.85016,1.75957 -2.24995,2.6008 5.86806,1.89846 7.74235,3.05539 9.42791,5.81951 3.0875,5.06314 2.47398,8.35863 -2.43107,13.05849 -4.89922,4.69428 -15.00997,10.49232 -21.68346,12.43444 -6.22263,1.81091 -10.75794,4.24693 -16.80306,9.02532 -6.26339,4.95093 -7.93466,7.38094 -9.71315,14.12289 -1.75912,6.66851 -4.77891,9.93855 -9.17798,9.93855 -3.72141,0 -10.65274,3.91121 -12.26281,6.91966 -0.57365,1.07187 -1.043,3.34637 -1.043,5.05444 0,1.70807 -0.89777,4.86534 -1.99504,7.01617 -4.257832,8.34604 -5.285842,13.08976 -4.605241,21.25075 0.554055,6.6436 0.35482,8.31979 -1.39708,11.7538 -1.12381,2.20285 -2.596645,3.98501 -3.272967,3.96037 -0.676322,-0.0246 -3.446528,-2.03132 -6.156013,-4.45928 z"
     id="path3348"
     inkscape:connector-curvature="0" />
</svg>
