<?xml version="1.0" encoding="UTF-8" standalone="no"?>
<!-- Created with Inkscape (http://www.inkscape.org/) -->

<svg
   xmlns:dc="http://purl.org/dc/elements/1.1/"
   xmlns:cc="http://creativecommons.org/ns#"
   xmlns:rdf="http://www.w3.org/1999/02/22-rdf-syntax-ns#"
   xmlns:svg="http://www.w3.org/2000/svg"
   xmlns="http://www.w3.org/2000/svg"
   xmlns:sodipodi="http://sodipodi.sourceforge.net/DTD/sodipodi-0.dtd"
   xmlns:inkscape="http://www.inkscape.org/namespaces/inkscape"
   id="svg3350"
   version="1.1"
   inkscape:version="0.91 r13725"
   width="861.25"
   height="362.5"
   viewBox="0 0 861.25 362.5"
   sodipodi:docname="russia.svg">
  <metadata
     id="metadata3356">
    <rdf:RDF>
      <cc:Work
         rdf:about="">
        <dc:format>image/svg+xml</dc:format>
        <dc:type
           rdf:resource="http://purl.org/dc/dcmitype/StillImage" />
        <dc:title></dc:title>
      </cc:Work>
    </rdf:RDF>
  </metadata>
  <defs
     id="defs3354" />
  <sodipodi:namedview
     pagecolor="#ffffff"
     bordercolor="#666666"
     borderopacity="1"
     objecttolerance="10"
     gridtolerance="10"
     guidetolerance="10"
     inkscape:pageopacity="0"
     inkscape:pageshadow="2"
     inkscape:window-width="1920"
     inkscape:window-height="1137"
     id="namedview3352"
     showgrid="false"
     inkscape:zoom="0.3713588"
     inkscape:cx="176.92362"
     inkscape:cy="272.85623"
     inkscape:window-x="-8"
     inkscape:window-y="-8"
     inkscape:window-maximized="1"
     inkscape:current-layer="svg3350" />
  <path
     style="fill:#000000"
     d="m 557.73164,360.71298 c -1.66477,-0.51214 -3.89518,-2.36357 -5.01129,-4.15982 -1.93285,-3.11068 -4.63642,-4.81753 -20.48871,-12.93521 -7.30607,-3.74131 -8.81679,-6.31686 -8.97536,-15.30171 -0.0948,-5.37312 -1.39927,-7.78836 -5.75902,-10.66317 -6.14565,-4.05244 -20.10934,-0.59319 -22.23591,5.50853 -0.6047,1.73505 -2.82929,6.07964 -4.94353,9.65464 -2.11424,3.575 -4.16219,7.97564 -4.551,9.7792 -0.67878,3.14868 -0.85277,3.25282 -4.37105,2.61636 -2.01527,-0.36457 -4.97552,-1.32748 -6.57833,-2.1398 -3.53281,-1.79046 -11.7635,-1.08571 -20.94649,1.79352 -9.33299,2.92626 -12.4055,2.57051 -22.24337,-2.57551 l -8.653,-4.52623 -8.83104,0.66666 -8.83104,0.66666 -3.54096,-3.89043 c -1.94752,-2.13974 -4.63701,-5.12793 -5.97665,-6.64043 -2.1829,-2.46457 -3.10586,-2.75 -8.89249,-2.75 -7.18015,0 -7.67076,0.4436 -7.67076,6.93576 0,2.65321 -0.75324,4.58496 -2.53924,6.51208 -2.24134,2.41845 -3.09192,2.68526 -7.25,2.2742 -17.84538,-1.76414 -34.65274,-2.82793 -36.67212,-2.32109 -1.31147,0.32915 -3.84978,1.83142 -5.64069,3.33837 -2.77875,2.33817 -4.35012,2.79515 -10.71699,3.11666 -9.51976,0.48072 -14.41391,-1.01927 -19.38548,-5.94141 -4.00992,-3.97004 -9.82951,-6.93341 -17.42333,-8.87206 -5.27228,-1.34598 -10.97305,-7.41222 -15.11651,-16.08561 -1.69652,-3.55129 -3.74407,-7.33264 -4.55009,-8.40299 -1.40831,-1.87016 -1.63226,-1.76286 -5.73932,2.75 -4.6193,5.0757 -7.23407,5.84132 -9.19976,2.69375 -1.06902,-1.71176 -1.93586,-1.91142 -5.97334,-1.37583 -4.50966,0.59823 -4.77441,0.49676 -5.86482,-2.24766 -2.06444,-5.19595 -2.57274,-5.84571 -6.82791,-8.72813 -3.74293,-2.53544 -4.40219,-2.69191 -5.90678,-1.402 -2.47889,2.12518 -5.43905,2.97688 -6.17995,1.77808 -1.16564,-1.88604 -6.95742,0.0901 -9.1055,3.10685 -1.56909,2.20358 -2.43665,2.65857 -3.73962,1.96124 -0.99143,-0.5306 -3.56103,-0.54832 -6.18255,-0.0426 -2.4673,0.47593 -6.9835,0.88493 -10.036,0.90888 -5.4957,0.0431 -7.95,1.20646 -7.95,3.7683 0,0.72861 1.125,1.75248 2.5,2.27525 2.01864,0.76749 2.5,1.63398 2.5,4.50025 0,3.16614 -0.33349,3.61645 -3.08595,4.16694 -4.59688,0.91938 -4.74776,3.05422 -0.49141,6.95355 5.90368,5.40849 4.77249,6.85463 -5.47618,7.00089 -6.54798,0.0935 -9.4896,0.61481 -12.69483,2.25 -6.02502,3.07374 -9.5369,2.76382 -13.99875,-1.23536 -6.03126,-5.40585 -9.8734,-6.9598 -15.54675,-6.28787 -7.56089,0.89547 -13.37258,4.11091 -14.70002,8.1331 -1.65246,5.007 -3.23219,5.9151 -6.21217,3.57105 -2.82741,-2.22408 -4.79394,-1.19927 -4.79394,2.49819 0,3.86394 -2.04632,8.13605 -4.53513,9.46802 -2.068856,1.10722 -3.370001,1.0238 -8.564872,-0.54908 -5.916019,-1.79122 -6.362666,-1.79351 -13.065119,-0.0669 -8.488404,2.18667 -10.943726,1.6535 -14.539914,-3.1573 -4.992156,-6.67825 -9.125939,-9.49435 -15.681358,-10.68275 -4.925526,-0.89293 -9.242815,-4.06033 -10.517181,-7.71598 -1.049381,-3.01026 -2.672463,-3.9313 -10.422482,-5.91438 -3.114914,-0.79705 -5.391632,-2.09808 -6.421199,-3.6694 -1.543555,-2.35576 -1.472202,-2.54713 2.206132,-5.91693 l 3.801278,-3.48243 -3.068112,-3.18182 c -1.687462,-1.74999 -3.948458,-5.24571 -5.024437,-7.76826 -1.075978,-2.52255 -3.402078,-5.67255 -5.16911,-7 -6.5395976,-4.91278 -9.8184853,-8.60208 -10.7980032,-12.1496 -1.4062928,-5.09318 0.7971498,-31.61616 2.8465381,-34.26397 0.4256967,-0.55 1.0864653,-2.67216 1.4683746,-4.7159 0.4076722,-2.18162 1.3960305,-3.9386 2.3937105,-4.25526 1.793373,-0.56919 10.090881,-16.92581 10.090881,-19.89184 0,-0.95498 -0.709277,-3.10791 -1.57617,-4.7843 -1.22663,-2.37204 -1.426937,-4.64052 -0.903237,-10.22918 0.591867,-6.3161 0.408927,-7.62865 -1.518601,-10.89557 -1.796736,-3.04524 -2.071493,-4.58719 -1.525179,-8.55936 0.578654,-4.20731 0.348952,-5.22823 -1.745244,-7.75679 -4.0311131,-4.86722 -4.5426402,-6.366 -3.5138049,-10.29545 2.0022219,-7.64713 1.9145099,-8.96682 -1.2293446,-18.49641 -2.6971378,-8.17551 -3.1201754,-10.72785 -2.7183944,-16.4011 0.5031536,-7.10466 1.3677157,-10.21884 2.8369637,-10.21884 0.4911562,0 0.9109948,0.7875 0.9329748,1.75 0.05075,2.22234 11.2102824,8.83905 16.5455124,9.81017 4.917479,0.89508 9.563269,2.78704 20.369689,8.29538 4.699659,2.39555 10.606381,4.97792 13.126047,5.73861 5.715599,1.72554 9.370136,4.81857 11.37081,9.62372 1.751325,4.20627 2.049917,10.35387 0.547978,11.28212 -0.55,0.33992 -1,2.16648 -1,4.05902 0,2.18201 -0.782481,4.22346 -2.138652,5.57963 -1.974267,1.97427 -2.862699,2.09546 -11.558539,1.57666 -10.093225,-0.60217 -11.022885,-0.98183 -18.722923,-7.64617 -4.573609,-3.95843 -7.694035,-4.91712 -10.406788,-3.19728 -1.023996,0.64919 -0.400339,2.19141 2.731974,6.75579 3.93138,5.72878 4.746596,8.37754 7.693051,24.9959 0.75564,4.26191 3.74839,6.60724 9.085513,7.12007 5.707839,0.54845 7.963136,-1.08326 4.719139,-3.41431 -4.257495,-3.05932 -5.402775,-4.40559 -5.402775,-6.35091 0,-3.11159 2.356787,-3.35462 6.337132,-0.65349 4.918484,3.33778 10.170821,4.22751 13.208078,2.23742 2.203862,-1.44402 2.338096,-2.02154 1.815495,-7.81082 -0.526281,-5.83006 -0.357582,-6.53418 2.502345,-10.44434 2.783354,-3.80548 3.377524,-4.14239 6.431416,-3.64681 2.428193,0.39404 4.769153,-0.16564 8.410349,-2.01078 7.584552,-3.84338 8.079325,-6.73764 2.795185,-16.35096 -4.118498,-7.49268 -4.286528,-9.21109 -1.185549,-12.12431 3.445942,-3.23729 6.7114,-2.75625 10.982601,1.61785 4.176401,4.27703 4.501321,5.90392 1.86192,9.32298 -3.122306,4.04462 -3.309615,6.82513 -0.639637,9.4951 2.773418,2.77342 4.256238,2.9282 9.012788,0.94079 2.85939,-1.19473 3.46788,-1.9729 3.46788,-4.4349 0,-5.07718 1.51657,-7.38217 9.45222,-14.36613 8.91376,-7.84478 12.45623,-8.76151 14.98205,-3.8771 2.13553,4.12966 10.90868,5.82864 13.56573,2.6271 1.50076,-1.80831 3.37581,-1.90676 5.9304,-0.31139 1.66368,1.03898 2.45766,0.57626 6.30725,-3.67575 4.54993,-5.02555 7.16911,-5.58453 8.36639,-1.78554 1.58461,5.02802 2.40007,6.20833 3.89332,5.63532 3.15468,-1.21057 3.67855,-4.08622 1.58258,-8.68717 -2.06207,-4.52652 -2.95931,-11.44361 -1.74024,-13.41609 0.3888,-0.6291 2.75182,-1.45048 5.25116,-1.82528 7.07842,-1.06147 15.18223,2.54243 23.75868,10.5659 3.82139,3.575 7.57417,7.99142 8.3395,9.81427 1.04308,2.48438 1.91925,3.23558 3.49911,3 3.84752,-0.57372 4.32602,-2.94653 2.41377,-11.96964 -0.97265,-4.58954 -2.68472,-11.4526 -3.80461,-15.25123 -3.16775,-10.74497 -2.28307,-19.837516 2.92802,-30.093405 2.23567,-4.4 5.30337,-11.034661 6.8171,-14.743691 3.39055,-8.307693 7.52953,-11.864634 14.59626,-12.543657 5.81233,-0.558492 7.86391,0.789191 7.85476,5.159793 -0.006,2.939224 -4.36467,19.907012 -7.5552,29.412502 -0.80883,2.409722 -1.43825,8.061238 -1.43825,12.913888 0,8.25984 0.19249,9.0044 4.5,17.40655 4.40135,8.58518 4.49898,8.98166 4.4534,18.08611 -0.062,12.38401 -2.6271,19.0075 -9.01379,23.275 -6.8157,4.55417 -8.21004,6.10609 -7.49898,8.34646 0.59468,1.87368 0.91552,1.91207 5.61592,0.67213 5.41974,-1.4297 7.31559,-3.20651 12.04901,-11.29245 2.52772,-4.31803 3.25012,-6.92777 3.87533,-14 1.16497,-13.17788 2.78758,-15.75365 8.53475,-13.54826 1.92926,0.74033 5.48436,8.40737 5.48436,11.82775 0,1.26847 0.80656,3.30237 1.79235,4.51977 1.64039,2.0258 1.90756,2.07463 3.15135,0.57594 1.14235,-1.37644 1.1447,-2.53086 0.0148,-7.24105 -0.73935,-3.08194 -2.29581,-7.00377 -3.4588,-8.71516 -2.02382,-2.97814 -2.37032,-3.09758 -8.07766,-2.78432 -5.30663,0.29126 -6.27861,0.0349 -8.82863,-2.32836 -2.82545,-2.61853 -2.85674,-2.76987 -2.23871,-10.8273 0.34473,-4.4944 1.11217,-11.77164 1.70542,-16.17164 0.59325,-4.4 1.19945,-11.600005 1.34711,-16.000005 0.21382,-6.371531 0.81865,-9.078247 2.9713,-13.296986 1.48656,-2.913342 3.36527,-5.551186 4.17491,-5.861875 2.88666,-1.107735 4.44656,1.639418 4.44656,7.830966 0,6.777711 1.69916,10.793746 5.40614,12.777664 2.00838,1.074852 3.13012,1.126926 5.08532,0.236077 3.37839,-1.539301 3.16593,-2.928296 -1.1192,-7.316663 -4.87396,-4.991394 -4.24171,-7.989818 2.2038,-10.451382 6.14969,-2.348587 9.1813,-1.217172 12.33517,4.603564 1.33467,2.463249 4.20046,6.728635 6.36842,9.478635 3.9172,4.968852 3.93755,5.040492 3.26742,11.500005 -1.15801,11.16233 -1.1454,11.41759 0.58147,11.76872 1.38077,0.28077 1.7337,-1.15982 2.3198,-9.46879 1.11313,-15.780689 1.06473,-17.448182 -0.54192,-18.669221 -5.15462,-3.917467 -9.87335,-14.296093 -9.8956,-21.764885 l -0.0108,-3.634171 13.62046,-0.398019 c 13.44221,-0.392811 13.64905,-0.433883 15.80565,-3.138516 1.75375,-2.199411 2.23385,-4.264395 2.4316,-10.458772 0.28764,-9.009718 1.68389,-11.156247 9.04296,-13.902214 2.52963,-0.943907 5.49933,-2.280299 6.59933,-2.96976 5.6913,-3.567211 18.52171,-3.512688 25.43218,0.108073 2.26826,1.188464 3.00151,0.856457 10.14975,-4.595722 4.23767,-3.2322 8.13448,-5.876728 8.65959,-5.876728 0.95029,0 3.20025,-4.811764 4.89529,-10.4690634 0.94757,-3.1625706 6.45116,-7.53093647 9.48802,-7.53093647 2.17169,0 4.88856,3.83040787 5.76849,8.13277217 0.47605,2.3276397 1.70482,3.6573127 5.01685,5.4288157 5.66341,3.029182 10.25186,4.774829 11.89336,4.524746 2.0776,-0.316523 13.87047,6.683767 16.15735,9.591059 3.71021,4.716774 3.52485,6.430121 -1.83747,16.983973 -5.63015,11.08098 -6.90517,12.491653 -16.0778,17.788351 -7.18293,4.147754 -8.967,5.988521 -9.01381,9.300283 -0.0394,2.789207 -0.0412,2.78927 6.28013,-0.218708 6.9242,-3.294833 10.39099,-6.714303 11.68706,-11.527537 0.79539,-2.953871 1.71137,-4.143939 3.54342,-4.603755 4.08162,-1.024421 9.14718,0.479991 13.94339,4.141027 5.2501,4.00749 6.67583,4.180627 12.0142,1.458973 5.11113,-2.605804 9.61609,-2.529702 14.79908,0.25 2.30742,1.2375 4.42158,2.484159 4.69812,2.770354 2.20268,2.279577 6.54912,2.94305 12.49589,1.907465 6.23556,-1.085876 6.30291,-1.131822 4.41948,-3.015249 -2.5367,-2.536705 -2.41655,-5.363469 0.33743,-7.93828 1.53901,-1.438887 3.03999,-1.932197 4.75,-1.561133 1.375,0.298368 5.65,1.052677 9.5,1.676242 10.52172,1.70415 11.5,2.250087 11.5,6.417679 0,7.332909 8.63731,20.471732 17.96966,27.334937 3.5662,2.622656 5.57868,5.073149 7.11039,8.657985 5.93121,13.881475 11.1206,14.951825 14.59204,3.009725 1.105,-3.801328 3.41992,-4.240902 7.28499,-1.383333 2.9644,2.191683 3.29962,2.219813 11.91741,1.000088 5.1031,-0.722264 11.42461,-0.96568 14.89173,-0.573419 5.54821,0.627709 6.07725,0.515499 6.69132,-1.419297 0.36674,-1.155491 0.36225,-5.191646 -0.01,-8.969232 l -0.67678,-6.868338 8.36461,-1.068599 c 10.62873,-1.357844 12.59642,-0.930608 17.85582,3.87695 5.32333,4.866006 7.896,5.557867 13.0293,3.503929 4.59097,-1.836941 9.25001,-2.069252 11.99856,-0.598275 1.03816,0.555609 3.54538,3.507797 5.5716,6.560417 7.31719,11.023829 7.42929,11.082119 22.90373,11.910919 15.23164,0.8158 17.57305,1.64303 26.49295,9.36001 3.94081,3.40936 5.15249,5.18073 5.64329,8.25 l 0.62499,3.90846 7.0278,0 c 6.00883,0 7.51692,0.37307 10.40127,2.57307 4.09466,3.12315 7.44164,2.69738 12.90096,-1.64114 2.79234,-2.21907 4.73797,-2.93193 8.00216,-2.93193 5.12878,0 6.40837,1.60956 5.66799,7.12956 -0.45211,3.3707 -0.21095,3.93375 2.14453,5.00698 3.20811,1.46171 3.47149,1.22421 7.8583,-7.08642 3.93857,-7.46145 5.72677,-8.33201 14.51713,-7.06747 8.55227,1.23029 14.31844,3.56368 16.87321,6.82807 2.6041,3.32742 5.80737,4.77203 12.58563,5.67587 2.90716,0.38766 5.22954,1.33798 6.01694,2.46215 0.7053,1.00695 3.76277,3.34292 6.79439,5.19104 12.62267,7.69497 19.23902,13.61038 21.5954,19.30756 2.07515,5.01725 5.04837,6.84518 13.75006,8.45354 6.07622,1.12308 8.60861,2.45989 8.60861,4.54435 0,2.86513 -6.43561,14.10615 -10.66388,18.62652 -5.80115,6.20189 -8.57192,6.49572 -11.11099,1.17825 -1.74833,-3.66147 -1.90584,-3.74251 -6.67166,-3.4327 -7.28075,0.47329 -9.28101,-0.36291 -11.56163,-4.8333 -1.11786,-2.1912 -2.60203,-3.984 -3.29815,-3.984 -1.18543,0 -7.69368,7.6113 -7.69368,8.99764 0,1.65448 -8.3216,5.18804 -10.97036,4.65829 -2.6293,-0.52586 -2.46321,-0.19801 2.58007,5.0928 2.96466,3.11017 5.39029,6.05298 5.39029,6.53958 0,1.56869 -6.26158,9.65883 -7.90688,10.21592 -0.87622,0.29667 -4.48248,3.23054 -8.01393,6.51971 -3.53144,3.28916 -9.38144,7.5937 -13,9.56563 -3.61855,1.97193 -9.12869,5.57098 -12.24474,7.99788 -4.89118,3.80945 -6.31808,4.41255 -10.4398,4.41255 -5.37302,0 -14.57358,1.5404 -21.58255,3.61345 -2.57834,0.7626 -6.23015,1.38655 -8.11514,1.38655 -3.67363,0 -7.9453,2.73588 -9.87954,6.32755 -2.03043,3.7703 -1.90724,12.07339 0.24168,16.28837 2.36517,4.63915 2.47729,9.8564 0.3226,15.01196 -0.89006,2.12966 -1.90759,5.89346 -2.26119,8.364 -0.57912,4.04629 -1.05644,4.69108 -4.81174,6.5 -4.99538,2.40626 -7.65798,5.60395 -9.33952,11.21641 -0.68735,2.29418 -2.76162,5.63661 -4.60949,7.42763 -2.22685,2.15835 -3.35976,4.19409 -3.35976,6.03719 0,3.80229 -3.71791,6.26484 -7.36502,4.87821 -2.45297,-0.93262 -2.63498,-1.42724 -2.63498,-7.16055 0,-3.3873 -0.41046,-7.78594 -0.91214,-9.77475 -3.25825,-12.91685 -3.27507,-15.36877 -0.1857,-27.07557 3.06941,-11.63119 4.2566,-14.0262 6.97028,-14.0618 0.89516,-0.0117 2.87921,-1.79083 4.409,-3.95352 4.32001,-6.10726 9.38199,-11.77327 18.96064,-21.22317 8.82831,-8.70964 11.38812,-12.69101 11.76717,-18.30196 0.38218,-5.65703 -0.01,-9.5 -0.96918,-9.5 -0.52796,0 -3.04759,2.23189 -5.59919,4.95975 -2.55159,2.72786 -6.15896,5.85639 -8.01636,6.95228 -2.95255,1.74205 -3.55967,1.80997 -4.82938,0.54025 -2.31336,-2.31336 -10.79409,-1.8645 -15.07187,0.79772 -9.63591,5.99677 -13.78001,9.99804 -16.2259,15.66669 -1.90028,4.40411 -3.44675,6.30029 -6.94158,8.51128 -6.03157,3.81585 -10.62368,3.74049 -17.76816,-0.29161 -3.05653,-1.725 -6.35165,-3.12329 -7.32248,-3.10733 -0.97083,0.016 -6.49015,1.36317 -12.26515,2.99376 -5.775,1.6306 -11.6494,2.96754 -13.05422,2.97097 -4.62267,0.0113 -11.58919,5.42961 -15.66735,12.18551 -2.07813,3.44266 -5.09138,7.53671 -6.69611,9.0979 -3.22586,3.13834 -11.84226,9.04301 -18.01004,12.34197 -5.24,2.80272 -5.46024,3.97218 -0.94896,5.03908 3.35293,0.79295 3.82206,1.31721 4.79655,5.36034 0.98301,4.07851 1.37721,4.50998 4.38432,4.79884 2.63148,0.25278 4.10813,-0.4089 7.25289,-3.25 2.17177,-1.96207 4.20197,-3.5674 4.51154,-3.5674 3.43523,0 9.43138,9.43853 9.43138,14.84591 0,1.60182 -1.18226,5.49481 -2.62725,8.65108 -2.34898,5.13085 -2.55829,6.49975 -1.97613,12.9241 0.60176,6.6407 0.47874,7.33937 -1.62275,9.21601 -4.29665,3.83692 -11.592,7.3629 -15.23406,7.3629 -1.98223,0 -5.21955,0.675 -7.19405,1.5 -3.93291,1.64327 -14.09805,1.85727 -18.84576,0.39674 z"
     id="path3366"
     inkscape:connector-curvature="0" />
  <path
     style="fill:#000000"
     d="m 557.73164,360.71298 c -1.66477,-0.51214 -3.89518,-2.36357 -5.01129,-4.15982 -1.93285,-3.11068 -4.63642,-4.81753 -20.48871,-12.93521 -7.30607,-3.74131 -8.81679,-6.31686 -8.97536,-15.30171 -0.0948,-5.37312 -1.39927,-7.78836 -5.75902,-10.66317 -6.14565,-4.05244 -20.10934,-0.59319 -22.23591,5.50853 -0.6047,1.73505 -2.82929,6.07964 -4.94353,9.65464 -2.11424,3.575 -4.16219,7.97564 -4.551,9.7792 -0.67878,3.14868 -0.85277,3.25282 -4.37105,2.61636 -2.01527,-0.36457 -4.97552,-1.32748 -6.57833,-2.1398 -3.53281,-1.79046 -11.7635,-1.08571 -20.94649,1.79352 -9.33299,2.92626 -12.4055,2.57051 -22.24337,-2.57551 l -8.653,-4.52623 -8.83104,0.66666 -8.83104,0.66666 -3.54096,-3.89043 c -1.94752,-2.13974 -4.63701,-5.12793 -5.97665,-6.64043 -2.1829,-2.46457 -3.10586,-2.75 -8.89249,-2.75 -7.18015,0 -7.67076,0.4436 -7.67076,6.93576 0,2.65321 -0.75324,4.58496 -2.53924,6.51208 -2.24134,2.41845 -3.09192,2.68526 -7.25,2.2742 -17.84538,-1.76414 -34.65274,-2.82793 -36.67212,-2.32109 -1.31147,0.32915 -3.84978,1.83142 -5.64069,3.33837 -2.77875,2.33817 -4.35012,2.79515 -10.71699,3.11666 -9.51976,0.48072 -14.41391,-1.01927 -19.38548,-5.94141 -4.00992,-3.97004 -9.82951,-6.93341 -17.42333,-8.87206 -5.27228,-1.34598 -10.97305,-7.41222 -15.11651,-16.08561 -1.69652,-3.55129 -3.74407,-7.33264 -4.55009,-8.40299 -1.40831,-1.87016 -1.63226,-1.76286 -5.73932,2.75 -4.6193,5.0757 -7.23407,5.84132 -9.19976,2.69375 -1.06902,-1.71176 -1.93586,-1.91142 -5.97334,-1.37583 -4.50966,0.59823 -4.77441,0.49676 -5.86482,-2.24766 -2.06444,-5.19595 -2.57274,-5.84571 -6.82791,-8.72813 -3.74293,-2.53544 -4.40219,-2.69191 -5.90678,-1.402 -2.47889,2.12518 -5.43905,2.97688 -6.17995,1.77808 -1.16564,-1.88604 -6.95742,0.0901 -9.1055,3.10685 -1.56909,2.20358 -2.43665,2.65857 -3.73962,1.96124 -0.99143,-0.5306 -3.56103,-0.54832 -6.18255,-0.0426 -2.4673,0.47593 -6.9835,0.88493 -10.036,0.90888 -5.4957,0.0431 -7.95,1.20646 -7.95,3.7683 0,0.72861 1.125,1.75248 2.5,2.27525 2.01864,0.76749 2.5,1.63398 2.5,4.50025 0,3.16614 -0.33349,3.61645 -3.08595,4.16694 -4.59688,0.91938 -4.74776,3.05422 -0.49141,6.95355 5.90368,5.40849 4.77249,6.85463 -5.47618,7.00089 -6.54798,0.0935 -9.4896,0.61481 -12.69483,2.25 -6.02502,3.07374 -9.5369,2.76382 -13.99875,-1.23536 -6.03126,-5.40585 -9.8734,-6.9598 -15.54675,-6.28787 -7.56089,0.89547 -13.37258,4.11091 -14.70002,8.1331 -1.65246,5.007 -3.23219,5.9151 -6.21217,3.57105 -2.82741,-2.22408 -4.79394,-1.19927 -4.79394,2.49819 0,3.86394 -2.04632,8.13605 -4.53513,9.46802 -2.068856,1.10722 -3.370001,1.0238 -8.564872,-0.54908 -5.916019,-1.79122 -6.362666,-1.79351 -13.065119,-0.0669 -8.488404,2.18667 -10.943726,1.6535 -14.539914,-3.1573 -4.992156,-6.67825 -9.125939,-9.49435 -15.681358,-10.68275 -4.925526,-0.89293 -9.242815,-4.06033 -10.517181,-7.71598 -1.049381,-3.01026 -2.672463,-3.9313 -10.422482,-5.91438 -3.114914,-0.79705 -5.391632,-2.09808 -6.421199,-3.6694 -1.543555,-2.35576 -1.472202,-2.54713 2.206132,-5.91693 l 3.801278,-3.48243 -3.068112,-3.18182 c -1.687462,-1.74999 -3.948458,-5.24571 -5.024437,-7.76826 -1.075978,-2.52255 -3.402078,-5.67255 -5.16911,-7 -6.5395976,-4.91278 -9.8184853,-8.60208 -10.7980032,-12.1496 -1.4062928,-5.09318 0.7971498,-31.61616 2.8465381,-34.26397 0.4256967,-0.55 1.0864653,-2.67216 1.4683746,-4.7159 0.4076722,-2.18162 1.3960305,-3.9386 2.3937105,-4.25526 1.793373,-0.56919 10.090881,-16.92581 10.090881,-19.89184 0,-0.95498 -0.709277,-3.10791 -1.57617,-4.7843 -1.22663,-2.37204 -1.426937,-4.64052 -0.903237,-10.22918 0.591867,-6.3161 0.408927,-7.62865 -1.518601,-10.89557 -1.796736,-3.04524 -2.071493,-4.58719 -1.525179,-8.55936 0.578654,-4.20731 0.348952,-5.22823 -1.745244,-7.75679 -4.0311131,-4.86722 -4.5426402,-6.366 -3.5138049,-10.29545 2.0022219,-7.64713 1.9145099,-8.96682 -1.2293446,-18.49641 -2.6971378,-8.17551 -3.1201754,-10.72785 -2.7183944,-16.4011 0.5031536,-7.10466 1.3677157,-10.21884 2.8369637,-10.21884 0.4911562,0 0.9109948,0.7875 0.9329748,1.75 0.05075,2.22234 11.2102824,8.83905 16.5455124,9.81017 4.917479,0.89508 9.563269,2.78704 20.369689,8.29538 4.699659,2.39555 10.606381,4.97792 13.126047,5.73861 5.715599,1.72554 9.370136,4.81857 11.37081,9.62372 1.751325,4.20627 2.049917,10.35387 0.547978,11.28212 -0.55,0.33992 -1,2.16648 -1,4.05902 0,2.18201 -0.782481,4.22346 -2.138652,5.57963 -1.974267,1.97427 -2.862699,2.09546 -11.558539,1.57666 -10.093225,-0.60217 -11.022885,-0.98183 -18.722923,-7.64617 -4.573609,-3.95843 -7.694035,-4.91712 -10.406788,-3.19728 -1.023996,0.64919 -0.400339,2.19141 2.731974,6.75579 3.93138,5.72878 4.746596,8.37754 7.693051,24.9959 0.75564,4.26191 3.74839,6.60724 9.085513,7.12007 5.707839,0.54845 7.963136,-1.08326 4.719139,-3.41431 -4.257495,-3.05932 -5.402775,-4.40559 -5.402775,-6.35091 0,-3.11159 2.356787,-3.35462 6.337132,-0.65349 4.918484,3.33778 10.170821,4.22751 13.208078,2.23742 2.203862,-1.44402 2.338096,-2.02154 1.815495,-7.81082 -0.526281,-5.83006 -0.357582,-6.53418 2.502345,-10.44434 2.783354,-3.80548 3.377524,-4.14239 6.431416,-3.64681 2.428193,0.39404 4.769153,-0.16564 8.410349,-2.01078 7.584552,-3.84338 8.079325,-6.73764 2.795185,-16.35096 -4.118498,-7.49268 -4.286528,-9.21109 -1.185549,-12.12431 3.445942,-3.23729 6.7114,-2.75625 10.982601,1.61785 4.176401,4.27703 4.501321,5.90392 1.86192,9.32298 -3.122306,4.04462 -3.309615,6.82513 -0.639637,9.4951 2.773418,2.77342 4.256238,2.9282 9.012788,0.94079 2.85939,-1.19473 3.46788,-1.9729 3.46788,-4.4349 0,-5.07718 1.51657,-7.38217 9.45222,-14.36613 8.91376,-7.84478 12.45623,-8.76151 14.98205,-3.8771 2.13553,4.12966 10.90868,5.82864 13.56573,2.6271 1.50076,-1.80831 3.37581,-1.90676 5.9304,-0.31139 1.66368,1.03898 2.45766,0.57626 6.30725,-3.67575 4.54993,-5.02555 7.16911,-5.58453 8.36639,-1.78554 1.58461,5.02802 2.40007,6.20833 3.89332,5.63532 3.15468,-1.21057 3.67855,-4.08622 1.58258,-8.68717 -2.06207,-4.52652 -2.95931,-11.44361 -1.74024,-13.41609 0.3888,-0.6291 2.75182,-1.45048 5.25116,-1.82528 7.07842,-1.06147 15.18223,2.54243 23.75868,10.5659 3.82139,3.575 7.57417,7.99142 8.3395,9.81427 1.04308,2.48438 1.91925,3.23558 3.49911,3 3.84752,-0.57372 4.32602,-2.94653 2.41377,-11.96964 -0.97265,-4.58954 -2.68472,-11.4526 -3.80461,-15.25123 -3.16775,-10.74497 -2.28307,-19.837516 2.92802,-30.093405 2.23567,-4.4 5.30337,-11.034661 6.8171,-14.743691 3.39055,-8.307693 7.52953,-11.864634 14.59626,-12.543657 5.81233,-0.558492 7.86391,0.789191 7.85476,5.159793 -0.006,2.939224 -4.36467,19.907012 -7.5552,29.412502 -0.80883,2.409722 -1.43825,8.061238 -1.43825,12.913888 0,8.25984 0.19249,9.0044 4.5,17.40655 4.40135,8.58518 4.49898,8.98166 4.4534,18.08611 -0.062,12.38401 -2.6271,19.0075 -9.01379,23.275 -6.8157,4.55417 -8.21004,6.10609 -7.49898,8.34646 0.59468,1.87368 0.91552,1.91207 5.61592,0.67213 5.41974,-1.4297 7.31559,-3.20651 12.04901,-11.29245 2.52772,-4.31803 3.25012,-6.92777 3.87533,-14 1.16497,-13.17788 2.78758,-15.75365 8.53475,-13.54826 1.92926,0.74033 5.48436,8.40737 5.48436,11.82775 0,1.26847 0.80656,3.30237 1.79235,4.51977 1.64039,2.0258 1.90756,2.07463 3.15135,0.57594 1.14235,-1.37644 1.1447,-2.53086 0.0148,-7.24105 -0.73935,-3.08194 -2.29581,-7.00377 -3.4588,-8.71516 -2.02382,-2.97814 -2.37032,-3.09758 -8.07766,-2.78432 -5.30663,0.29126 -6.27861,0.0349 -8.82863,-2.32836 -2.82545,-2.61853 -2.85674,-2.76987 -2.23871,-10.8273 0.34473,-4.4944 1.11217,-11.77164 1.70542,-16.17164 0.59325,-4.4 1.19945,-11.600005 1.34711,-16.000005 0.21382,-6.371531 0.81865,-9.078247 2.9713,-13.296986 1.48656,-2.913342 3.36527,-5.551186 4.17491,-5.861875 2.88666,-1.107735 4.44656,1.639418 4.44656,7.830966 0,6.777711 1.69916,10.793746 5.40614,12.777664 2.00838,1.074852 3.13012,1.126926 5.08532,0.236077 3.37839,-1.539301 3.16593,-2.928296 -1.1192,-7.316663 -4.87396,-4.991394 -4.24171,-7.989818 2.2038,-10.451382 6.14969,-2.348587 9.1813,-1.217172 12.33517,4.603564 1.33467,2.463249 4.20046,6.728635 6.36842,9.478635 3.9172,4.968852 3.93755,5.040492 3.26742,11.500005 -1.15801,11.16233 -1.1454,11.41759 0.58147,11.76872 1.38077,0.28077 1.7337,-1.15982 2.3198,-9.46879 1.11313,-15.780689 1.06473,-17.448182 -0.54192,-18.669221 -5.15462,-3.917467 -9.87335,-14.296093 -9.8956,-21.764885 l -0.0108,-3.634171 13.62046,-0.398019 c 13.44221,-0.392811 13.64905,-0.433883 15.80565,-3.138516 1.75375,-2.199411 2.23385,-4.264395 2.4316,-10.458772 0.28764,-9.009718 1.68389,-11.156247 9.04296,-13.902214 2.52963,-0.943907 5.49933,-2.280299 6.59933,-2.96976 5.6913,-3.567211 18.52171,-3.512688 25.43218,0.108073 2.26826,1.188464 3.00151,0.856457 10.14975,-4.595722 4.23767,-3.2322 8.13448,-5.876728 8.65959,-5.876728 0.95029,0 3.20025,-4.811764 4.89529,-10.4690634 0.94757,-3.1625706 6.45116,-7.53093647 9.48802,-7.53093647 2.17169,0 4.88856,3.83040787 5.76849,8.13277217 0.47605,2.3276397 1.70482,3.6573127 5.01685,5.4288157 5.66341,3.029182 10.25186,4.774829 11.89336,4.524746 2.0776,-0.316523 13.87047,6.683767 16.15735,9.591059 3.71021,4.716774 3.52485,6.430121 -1.83747,16.983973 -5.63015,11.08098 -6.90517,12.491653 -16.0778,17.788351 -7.18293,4.147754 -8.967,5.988521 -9.01381,9.300283 -0.0394,2.789207 -0.0412,2.78927 6.28013,-0.218708 6.9242,-3.294833 10.39099,-6.714303 11.68706,-11.527537 0.79539,-2.953871 1.71137,-4.143939 3.54342,-4.603755 4.08162,-1.024421 9.14718,0.479991 13.94339,4.141027 5.2501,4.00749 6.67583,4.180627 12.0142,1.458973 5.11113,-2.605804 9.61609,-2.529702 14.79908,0.25 2.30742,1.2375 4.42158,2.484159 4.69812,2.770354 2.20268,2.279577 6.54912,2.94305 12.49589,1.907465 6.23556,-1.085876 6.30291,-1.131822 4.41948,-3.015249 -2.5367,-2.536705 -2.41655,-5.363469 0.33743,-7.93828 1.53901,-1.438887 3.03999,-1.932197 4.75,-1.561133 1.375,0.298368 5.65,1.052677 9.5,1.676242 10.52172,1.70415 11.5,2.250087 11.5,6.417679 0,7.332909 8.63731,20.471732 17.96966,27.334937 3.5662,2.622656 5.57868,5.073149 7.11039,8.657985 5.93121,13.881475 11.1206,14.951825 14.59204,3.009725 1.105,-3.801328 3.41992,-4.240902 7.28499,-1.383333 2.9644,2.191683 3.29962,2.219813 11.91741,1.000088 5.1031,-0.722264 11.42461,-0.96568 14.89173,-0.573419 5.54821,0.627709 6.07725,0.515499 6.69132,-1.419297 0.36674,-1.155491 0.36225,-5.191646 -0.01,-8.969232 l -0.67678,-6.868338 8.36461,-1.068599 c 10.62873,-1.357844 12.59642,-0.930608 17.85582,3.87695 5.32333,4.866006 7.896,5.557867 13.0293,3.503929 4.59097,-1.836941 9.25001,-2.069252 11.99856,-0.598275 1.03816,0.555609 3.54538,3.507797 5.5716,6.560417 7.31719,11.023829 7.42929,11.082119 22.90373,11.910919 15.23164,0.8158 17.57305,1.64303 26.49295,9.36001 3.94081,3.40936 5.15249,5.18073 5.64329,8.25 l 0.62499,3.90846 7.0278,0 c 6.00883,0 7.51692,0.37307 10.40127,2.57307 4.09466,3.12315 7.44164,2.69738 12.90096,-1.64114 2.79234,-2.21907 4.73797,-2.93193 8.00216,-2.93193 5.12878,0 6.40837,1.60956 5.66799,7.12956 -0.45211,3.3707 -0.21095,3.93375 2.14453,5.00698 3.20811,1.46171 3.47149,1.22421 7.8583,-7.08642 3.93857,-7.46145 5.72677,-8.33201 14.51713,-7.06747 8.55227,1.23029 14.31844,3.56368 16.87321,6.82807 2.6041,3.32742 5.80737,4.77203 12.58563,5.67587 2.90716,0.38766 5.22954,1.33798 6.01694,2.46215 0.7053,1.00695 3.76277,3.34292 6.79439,5.19104 12.62267,7.69497 19.23902,13.61038 21.5954,19.30756 2.07515,5.01725 5.04837,6.84518 13.75006,8.45354 6.07622,1.12308 8.60861,2.45989 8.60861,4.54435 0,2.86513 -6.43561,14.10615 -10.66388,18.62652 -5.80115,6.20189 -8.57192,6.49572 -11.11099,1.17825 -1.74833,-3.66147 -1.90584,-3.74251 -6.67166,-3.4327 -7.28075,0.47329 -9.28101,-0.36291 -11.56163,-4.8333 -1.11786,-2.1912 -2.60203,-3.984 -3.29815,-3.984 -1.18543,0 -7.69368,7.6113 -7.69368,8.99764 0,1.65448 -8.3216,5.18804 -10.97036,4.65829 -2.6293,-0.52586 -2.46321,-0.19801 2.58007,5.0928 2.96466,3.11017 5.39029,6.05298 5.39029,6.53958 0,1.56869 -6.26158,9.65883 -7.90688,10.21592 -0.87622,0.29667 -4.48248,3.23054 -8.01393,6.51971 -3.53144,3.28916 -9.38144,7.5937 -13,9.56563 -3.61855,1.97193 -9.12869,5.57098 -12.24474,7.99788 -4.89118,3.80945 -6.31808,4.41255 -10.4398,4.41255 -5.37302,0 -14.57358,1.5404 -21.58255,3.61345 -2.57834,0.7626 -6.23015,1.38655 -8.11514,1.38655 -3.67363,0 -7.9453,2.73588 -9.87954,6.32755 -2.03043,3.7703 -1.90724,12.07339 0.24168,16.28837 2.36517,4.63915 2.47729,9.8564 0.3226,15.01196 -0.89006,2.12966 -1.90759,5.89346 -2.26119,8.364 -0.57912,4.04629 -1.05644,4.69108 -4.81174,6.5 -4.99538,2.40626 -7.65798,5.60395 -9.33952,11.21641 -0.68735,2.29418 -2.76162,5.63661 -4.60949,7.42763 -2.22685,2.15835 -3.35976,4.19409 -3.35976,6.03719 0,3.80229 -3.71791,6.26484 -7.36502,4.87821 -2.45297,-0.93262 -2.63498,-1.42724 -2.63498,-7.16055 0,-3.3873 -0.41046,-7.78594 -0.91214,-9.77475 -3.25825,-12.91685 -3.27507,-15.36877 -0.1857,-27.07557 3.06941,-11.63119 4.2566,-14.0262 6.97028,-14.0618 0.89516,-0.0117 2.87921,-1.79083 4.409,-3.95352 4.32001,-6.10726 9.38199,-11.77327 18.96064,-21.22317 8.82831,-8.70964 11.38812,-12.69101 11.76717,-18.30196 0.38218,-5.65703 -0.01,-9.5 -0.96918,-9.5 -0.52796,0 -3.04759,2.23189 -5.59919,4.95975 -2.55159,2.72786 -6.15896,5.85639 -8.01636,6.95228 -2.95255,1.74205 -3.55967,1.80997 -4.82938,0.54025 -2.31336,-2.31336 -10.79409,-1.8645 -15.07187,0.79772 -9.63591,5.99677 -13.78001,9.99804 -16.2259,15.66669 -1.90028,4.40411 -3.44675,6.30029 -6.94158,8.51128 -6.03157,3.81585 -10.62368,3.74049 -17.76816,-0.29161 -3.05653,-1.725 -6.35165,-3.12329 -7.32248,-3.10733 -0.97083,0.016 -6.49015,1.36317 -12.26515,2.99376 -5.775,1.6306 -11.6494,2.96754 -13.05422,2.97097 -4.62267,0.0113 -11.58919,5.42961 -15.66735,12.18551 -2.07813,3.44266 -5.09138,7.53671 -6.69611,9.0979 -3.22586,3.13834 -11.84226,9.04301 -18.01004,12.34197 -5.24,2.80272 -5.46024,3.97218 -0.94896,5.03908 3.35293,0.79295 3.82206,1.31721 4.79655,5.36034 0.98301,4.07851 1.37721,4.50998 4.38432,4.79884 2.63148,0.25278 4.10813,-0.4089 7.25289,-3.25 2.17177,-1.96207 4.20197,-3.5674 4.51154,-3.5674 3.43523,0 9.43138,9.43853 9.43138,14.84591 0,1.60182 -1.18226,5.49481 -2.62725,8.65108 -2.34898,5.13085 -2.55829,6.49975 -1.97613,12.9241 0.60176,6.6407 0.47874,7.33937 -1.62275,9.21601 -4.29665,3.83692 -11.592,7.3629 -15.23406,7.3629 -1.98223,0 -5.21955,0.675 -7.19405,1.5 -3.93291,1.64327 -14.09805,1.85727 -18.84576,0.39674 z"
     id="path3364"
     inkscape:connector-curvature="0" />
</svg>
