<?xml version="1.0" encoding="UTF-8" standalone="no"?>
<!-- Created with Inkscape (http://www.inkscape.org/) -->

<svg
   xmlns:dc="http://purl.org/dc/elements/1.1/"
   xmlns:cc="http://creativecommons.org/ns#"
   xmlns:rdf="http://www.w3.org/1999/02/22-rdf-syntax-ns#"
   xmlns:svg="http://www.w3.org/2000/svg"
   xmlns="http://www.w3.org/2000/svg"
   xmlns:sodipodi="http://sodipodi.sourceforge.net/DTD/sodipodi-0.dtd"
   xmlns:inkscape="http://www.inkscape.org/namespaces/inkscape"
   id="svg3350"
   version="1.1"
   inkscape:version="0.91 r13725"
   width="247.5"
   height="417.5"
   viewBox="0 0 247.5 417.5"
   sodipodi:docname="southamerica.svg">
  <metadata
     id="metadata3356">
    <rdf:RDF>
      <cc:Work
         rdf:about="">
        <dc:format>image/svg+xml</dc:format>
        <dc:type
           rdf:resource="http://purl.org/dc/dcmitype/StillImage" />
        <dc:title></dc:title>
      </cc:Work>
    </rdf:RDF>
  </metadata>
  <defs
     id="defs3354" />
  <sodipodi:namedview
     pagecolor="#ffffff"
     bordercolor="#666666"
     borderopacity="1"
     objecttolerance="10"
     gridtolerance="10"
     guidetolerance="10"
     inkscape:pageopacity="0"
     inkscape:pageshadow="2"
     inkscape:window-width="1920"
     inkscape:window-height="1137"
     id="namedview3352"
     showgrid="false"
     inkscape:zoom="0.56526946"
     inkscape:cx="123.75"
     inkscape:cy="208.75"
     inkscape:window-x="-8"
     inkscape:window-y="-8"
     inkscape:window-maximized="1"
     inkscape:current-layer="svg3350" />
  <path
     style="fill:#000000"
     d="m 66.538873,415.50583 c -3.564368,-1.0735 -19.350681,-9.595 -23.534386,-12.70393 -4.133248,-3.07143 -7.760428,-10.26084 -8.641276,-17.12781 -0.375745,-2.92925 -1.563141,-7.55841 -2.638659,-10.28702 -2.843708,-7.21454 -2.665769,-16.25424 0.391469,-19.88756 2.051888,-2.43853 2.434405,-4.25189 3.042511,-14.42335 0.382555,-6.39878 0.946075,-12.287 1.252267,-13.08492 0.306191,-0.79792 2.087061,-2.39658 3.957489,-3.55256 4.339293,-2.68183 4.348845,-3.27678 0.476502,-29.6782 -0.603776,-4.11651 -0.270317,-7.1051 1.55579,-13.94354 1.278354,-4.78721 2.964825,-10.07942 3.747713,-11.76048 2.852207,-6.12439 5.740735,-18.78666 7.134755,-31.27618 1.611253,-14.4358 2.55459,-19.56425 5.569821,-30.28028 4.122634,-14.65171 4.97682,-20.09864 4.378866,-27.92291 -0.825884,-10.80677 -4.65385,-18.78503 -10.874712,-22.66511 -2.567795,-1.60159 -6.143182,-3.85502 -7.945306,-5.00763 -1.802123,-1.15261 -4.596452,-2.42442 -6.20962,-2.82624 -1.613168,-0.40182 -5.307544,-2.30331 -8.209725,-4.22552 -3.980656,-2.63652 -5.21788,-4.03009 -5.037245,-5.67376 0.326089,-2.96722 -2.000966,-10.60549 -4.164561,-13.66966 -0.974441,-1.38004 -3.431917,-5.87972 -5.461058,-9.99928 -2.029141,-4.11956 -4.708291,-8.84456 -5.9536654,-10.5 -1.2453748,-1.65544 -3.5451625,-5.650498 -5.1106392,-8.877908 -2.6432608,-5.449385 -2.7570689,-6.162798 -1.5952612,-10 C 3.3580253,83.859392 3.9244831,81.325 3.9287375,80.5 3.9329918,79.675 3.8677499,75.848478 3.7837554,71.996618 3.5898418,63.104027 4.2335548,61.519153 11.639541,52.655025 c 3.80453,-4.553593 6.495763,-8.855788 7.175499,-11.470728 0.598223,-2.301364 1.589968,-5.624566 2.203876,-7.384895 1.183855,-3.3946 0.880096,-4.39503 -3.346601,-11.022041 -2.592534,-4.064817 -1.806974,-7.720997 1.481581,-6.895622 3.772926,0.946944 8.178718,-2.591358 9.433978,-7.5764494 0.916993,-3.6417079 1.758145,-4.7099953 4.881216,-6.199284 2.075316,-0.9896494 6.09487,-2.03896945 8.932342,-2.33182235 4.544987,-0.46908404 5.295558,-0.27737208 6.306019,1.61069295 0.636144,1.1886461 0.871247,3.6129422 0.527875,5.4432694 -0.438136,2.335465 -0.171109,3.6719204 0.913511,4.5720754 2.225467,1.846973 3.797061,0.373688 3.483517,-3.2656113 -0.379988,-4.4105192 0.534986,-5.4218294 5.591373,-6.1800815 3.748598,-0.5621369 4.904519,-0.287465 7.726692,1.8360295 4.219946,3.1752254 11.460503,4.0929279 19.318645,2.4485368 7.87742,-1.6484253 15.478746,0.063834 20.499996,4.6177855 1.925,1.745852 5.09653,3.976637 7.04784,4.957299 2.01779,1.014072 4.94711,3.92042 6.79241,6.739157 4.66666,7.128406 6.82509,8.311532 12.53848,6.872884 4.4343,-1.11657 4.92927,-1.002232 13.69531,3.163603 10.11722,4.807951 13.421,7.961875 14.39805,13.744961 0.47519,2.812619 1.34654,4.217179 3.11655,5.023648 1.51794,0.691622 2.68538,2.261654 3.05466,4.108086 0.32875,1.643746 1.1834,3.474689 1.89921,4.068762 1.62432,1.348069 11.40117,4.962775 13.44337,4.970297 4.00688,0.01476 9.6192,2.50836 13.36882,5.939887 5.07174,4.641488 7.30534,5.383208 15.63495,5.191956 11.05937,-0.253929 13.19248,0.462113 20.66546,6.936984 5.84955,5.068276 7.34828,5.89395 10.30667,5.678134 2.82036,-0.205746 3.69773,0.210676 4.73525,2.247462 1.45673,2.859734 1.72467,8.621343 0.43791,9.4166 -0.47578,0.29405 -1.11043,2.36401 -1.41033,4.59991 -0.71155,5.30505 -7.33352,16.36022 -13.68514,22.84693 -4.76138,4.86265 -5.03947,5.43686 -5.03947,10.40572 0,2.90084 -0.93251,7.71901 -2.07958,10.74496 -1.14377,3.01723 -3.08153,8.44493 -4.30614,12.06155 -2.29437,6.77596 -3.36131,8.7378 -10.00928,18.40455 -4.76393,6.9272 -6.25439,7.93133 -15.02131,10.1199 -11.56343,2.88668 -18.80846,8.02029 -20.19897,14.31236 -0.31451,1.42314 -1.39034,4.83752 -2.39074,7.58752 -1.0004,2.75 -2.6458,7.7 -3.65645,11 -1.07957,3.52507 -3.28607,7.64995 -5.34926,10 -1.93145,2.2 -5.03472,6.25 -6.89617,9 -3.51449,5.19214 -9.65432,11.60444 -10.39865,10.86012 -0.23501,-0.23501 -1.78502,1.11907 -3.44446,3.00908 -5.46352,6.2226 -8.52147,6.9553 -13.06662,3.1308 -3.35617,-2.82403 -5.00529,-3.08119 -7.59863,-1.18489 -1.67796,1.22695 -1.5232,1.6332 2.30887,6.06082 4.77543,5.51757 5.19914,8.70195 1.82643,13.72619 -2.51506,3.7466 -5.3422,5.38191 -17.19798,9.94784 -8.5868,3.30698 -9.48226,4.06483 -9.50574,8.04505 -0.026,4.41419 -2.889125,6.05482 -9.259655,5.30609 l -5.530401,-0.64999 -0.708826,6.1073 c -0.389855,3.35901 -0.404755,8.31816 -0.03311,11.02033 0.811353,5.89924 -0.506205,8.85346 -6.503064,14.58116 -2.280294,2.17795 -4.812987,5.24974 -5.628207,6.8262 -1.293373,2.50111 -1.29865,3.14645 -0.04142,5.06523 0.792439,1.20942 1.763532,4.97963 2.157984,8.37826 0.62026,5.3442 0.402949,6.80852 -1.607957,10.83497 -1.278829,2.5606 -3.352057,5.46341 -4.607173,6.45069 -1.255116,0.98727 -3.186441,3.83962 -4.291833,6.33854 -1.919712,4.33982 -1.938742,4.82595 -0.424543,10.84485 0.871893,3.46575 3.020227,9.00136 4.774076,12.30136 2.574483,4.84409 4.152075,6.51948 8.188815,8.69647 6.026123,3.24985 6.459196,5.57458 1.5,8.05198 -3.712907,1.8548 -7.755217,2.10513 -12.230191,0.75738 z M 7.4521782,72.3125 c -0.3192263,-0.797733 -0.5561827,-0.560776 -0.6041666,0.604167 -0.043421,1.054166 0.1929276,1.644791 0.5252193,1.3125 0.3322916,-0.332292 0.3678179,-1.194792 0.078947,-1.916667 z"
     id="path3362"
     inkscape:connector-curvature="0" />
</svg>
