<?xml version="1.0" encoding="UTF-8" standalone="no"?>
<!-- Created with Inkscape (http://www.inkscape.org/) -->

<svg
   xmlns:dc="http://purl.org/dc/elements/1.1/"
   xmlns:cc="http://creativecommons.org/ns#"
   xmlns:rdf="http://www.w3.org/1999/02/22-rdf-syntax-ns#"
   xmlns:svg="http://www.w3.org/2000/svg"
   xmlns="http://www.w3.org/2000/svg"
   xmlns:sodipodi="http://sodipodi.sourceforge.net/DTD/sodipodi-0.dtd"
   xmlns:inkscape="http://www.inkscape.org/namespaces/inkscape"
   id="svg3336"
   version="1.1"
   inkscape:version="0.91 r13725"
   width="310"
   height="261.25"
   viewBox="0 0 310 261.25"
   sodipodi:docname="USA.svg">
  <metadata
     id="metadata3342">
    <rdf:RDF>
      <cc:Work
         rdf:about="">
        <dc:format>image/svg+xml</dc:format>
        <dc:type
           rdf:resource="http://purl.org/dc/dcmitype/StillImage" />
        <dc:title></dc:title>
      </cc:Work>
    </rdf:RDF>
  </metadata>
  <defs
     id="defs3340" />
  <sodipodi:namedview
     pagecolor="#ffffff"
     bordercolor="#666666"
     borderopacity="1"
     objecttolerance="10"
     gridtolerance="10"
     guidetolerance="10"
     inkscape:pageopacity="0"
     inkscape:pageshadow="2"
     inkscape:window-width="1920"
     inkscape:window-height="1137"
     id="namedview3338"
     showgrid="false"
     inkscape:zoom="1.8136627"
     inkscape:cx="243.3368"
     inkscape:cy="90.960477"
     inkscape:window-x="-8"
     inkscape:window-y="-8"
     inkscape:window-maximized="1"
     inkscape:current-layer="svg3336" />
  <path
     style="fill:#000000"
     d="M 231.60699,260.04989 C 231.27314,259.17991 231,257.18147 231,255.60891 c 0,-1.57256 -0.45,-3.13731 -1,-3.47723 -1.07716,-0.66572 -1.31532,0.43193 -1.0306,4.75 0.19609,2.97382 -1.04385,3.57014 -2.86378,1.37726 -0.6266,-0.755 -3.794,-1.67308 -7.03867,-2.04018 -7.17599,-0.81187 -10.58437,-3.22586 -11.36738,-8.05098 -0.71949,-4.43369 -5.86258,-11.68961 -10.59261,-14.94415 -1.98383,-1.36499 -6.98196,-3.68097 -11.10696,-5.14662 -6.26585,-2.22632 -12.81842,-5.90255 -15,-8.41557 -0.275,-0.31677 -1.72167,-1.35306 -3.21482,-2.30286 -3.34139,-2.12547 -7.12833,-2.22328 -8.78518,-0.2269 -1.94985,2.34943 -6.16853,1.79194 -15.69393,-2.07391 -4.84334,-1.96566 -10.83107,-4.2689 -13.30607,-5.11832 -2.475,-0.84942 -5.625,-2.2835 -7,-3.18685 -1.375,-0.90334 -5.12183,-2.9876 -8.32628,-4.63168 -6.13374,-3.14698 -8.02556,-5.61343 -8.96052,-11.68217 -0.79254,-5.14432 -3.0753,-8.22269 -19.491776,-26.28521 -2.903219,-3.19432 -6.700411,-8.66475 -8.438204,-12.15652 -2.145341,-4.31065 -4.372161,-7.15108 -6.936836,-8.8483 -2.644566,-1.75009 -4.722551,-4.45974 -6.929785,-9.0363 -3.485946,-7.22789 -6.254314,-9.57159 -8.570289,-7.25562 -2.256377,2.25638 3.512274,12.89804 11.048428,20.38148 4.774335,4.74094 6.539807,7.34443 7.894373,11.64161 1.745816,5.53836 3.052712,7.24622 7.067545,9.23592 2.81777,1.39645 3.573036,6.51876 0.95977,6.50928 -4.306705,-0.0156 -15.092663,-10.51363 -17.983767,-17.50365 -1.309916,-3.16708 -2.177252,-4.08165 -3.534288,-3.72678 -2.008849,0.52533 -2.511361,-1.36294 -0.548367,-2.06057 0.6875,-0.24433 0.125,-0.30884 -1.25,-0.14336 -1.375,0.16549 -3.283707,0.60409 -4.241571,0.97467 -1.173307,0.45394 -1.966171,0.0885 -2.42991,-1.12 -0.402872,-1.04986 -0.199009,-1.95689 0.491571,-2.18708 2.955464,-0.98516 0.03171,-9.72413 -6.970572,-20.8347 -2.117235,-3.35944 -3.849518,-6.56006 -3.849518,-7.1125 0,-0.96506 -4.179326,-6.8823 -7.436918,-10.52944 -1.044653,-1.16958 -3.036794,-1.75 -6.006378,-1.75 -4.649458,0 -7.556704,-2.36443 -7.556704,-6.14578 0,-0.93542 -1.058903,-2.972799 -2.353118,-4.527498 -1.294215,-1.554699 -3.121942,-5.163823 -4.061617,-8.020275 -0.939675,-2.856453 -2.773735,-6.681453 -4.075689,-8.5 C 4.6941791,73.315277 3.2924482,69.871756 2.1384646,60.873471 0.94312785,51.552731 1.904974,36.559443 4.2175189,28.465106 5.3616717,24.460358 5.0856329,22.538611 2.3378203,15.378883 0.25342398,9.9477588 1.0868594,7.3594347 5.1021314,6.7940145 c 1.3188299,-0.1857142 3.4458915,-1.3107142 4.7268036,-2.5 1.920357,-1.7829897 3.499265,-2.1526228 9,-2.1069609 3.669088,0.030457 20.846069,0.1886987 38.171069,0.3516476 18.263604,0.1717769 35.491929,-0.1593632 41,-0.7880478 5.224996,-0.5963752 20.178386,-1.09211665 33.229756,-1.10164763 19.60264,-0.0143151 24.43626,0.26535197 27.79187,1.60800393 2.59291,1.0374754 5.66356,1.4448263 8.48987,1.1262607 3.34659,-0.3772095 5.59502,0.072908 9.20813,1.8433947 2.6292,1.288357 5.73777,2.3565397 6.90793,2.3737394 2.56941,0.037767 4.8015,2.4707835 4.05394,4.4188765 -0.29823,0.77719 -2.37944,1.723466 -4.62491,2.102835 -2.50651,0.423472 -4.48154,1.435076 -5.11587,2.620328 -1.53137,2.861392 -0.19256,4.188262 3.4277,3.397129 7.56035,-1.652159 15.52908,-1.693095 17.81565,-0.09152 1.28351,0.899005 4.29095,1.583624 6.95665,1.583624 2.58264,0 5.40751,0.273145 6.27749,0.606989 1.81023,0.694651 2.12408,3.939825 0.47933,4.956333 -0.65301,0.403582 0.18351,1.304167 2.05191,2.209061 3.42083,1.656756 6.25828,5.974027 7.05055,10.727617 0.44444,2.666667 0.88889,3 4,3 3.10408,0 3.53685,-0.322029 3.82576,-2.846818 0.27219,-2.378616 0.68336,-2.750909 2.5,-2.263655 1.19583,0.32074 3.74924,0.596199 5.67424,0.612131 4.90382,0.04059 6.79068,1.340699 5.02808,3.464508 -1.90769,2.298626 0.0241,4.11146 2.79882,2.626475 1.12289,-0.600953 3.30397,-1.092641 4.84685,-1.092641 4.50787,0 10.66423,-3.073356 12.84181,-6.410835 1.97075,-3.020479 2.22645,-3.100282 11.5,-3.589165 5.21644,-0.275 10.0391,-0.85921 10.71701,-1.298245 0.67792,-0.439035 2.37962,-4.558843 3.78158,-9.155129 2.40531,-7.885786 3.62069,-9.546626 6.98608,-9.546626 1.75982,0 5.49977,6.120143 5.49977,8.999957 0,1.264668 1.45664,3.640125 3.30025,5.381966 4.34227,4.102581 5.11422,6.336576 3.19938,9.258982 -1.20567,1.840094 -2.44242,2.359095 -5.62155,2.359095 -4.321,0 -9.96573,2.195756 -12.02574,4.677914 -0.6818,0.821526 -1.56411,4.245543 -1.96069,7.608926 -0.83818,7.108711 -1.81557,8.105121 -9.67584,9.864172 -5.42784,1.214698 -5.56162,1.331247 -8.36962,7.291708 -1.56949,3.331504 -3.68248,7.18228 -4.69554,8.55728 -4.1543,5.638526 -7.06335,10.659817 -7.71085,13.309644 -0.43635,1.785724 -1.17657,2.621609 -2.03115,2.293674 -1.80878,-0.694094 -2.89811,1.293427 -2.54644,4.646081 0.15869,1.512831 -0.19539,2.750604 -0.78684,2.750604 -0.59146,0 -1.07537,0.675 -1.07537,1.5 0,0.825 -0.66446,2.2875 -1.47657,3.25 -3.88998,4.61033 -10.36988,11.02536 -13.52343,13.38804 l -3.5,2.62226 0.0184,8.86985 c 0.0137,6.60592 0.58798,10.46611 2.25,15.12383 1.22738,3.43969 2.23161,8.20496 2.23161,10.58949 0,3.59013 -0.40727,4.52106 -2.36891,5.41485 -3.50349,1.5963 -8.20495,-1.5562 -9.63812,-6.46271 -0.60978,-2.08759 -2.77015,-7.16542 -4.80083,-11.28407 -3.60154,-7.30472 -3.80256,-7.50829 -8.19214,-8.29624 -2.475,-0.44427 -7.28725,-0.65474 -10.6939,-0.46771 -5.33142,0.2927 -6.49031,0.71688 -8.32258,3.04623 -2.45749,3.12419 -4.52421,3.32133 -12.64483,1.20618 -7.38566,-1.92372 -19.553,-1.95765 -23.2135,-0.0647 C 153.93415,141.23421 148,148.2792 148,151.08751 c 0,1.34753 0.55721,3.673 1.23824,5.1677 1.01321,2.22375 0.99049,2.80023 -0.125,3.17206 -5.40346,1.80115 -6.62876,9.46179 -3.11324,19.46409 1.1,3.12969 2.00168,6.4891 2.00374,7.46534 0.0124,5.88701 12.0941,15.49968 20.95879,16.67562 6.43481,0.85361 11.74301,-1.19918 12.50188,-4.83474 0.29457,-1.41125 0.76578,-3.6774 1.04711,-5.03591 0.28134,-1.3585 2.27498,-4.32378 4.43031,-6.5895 3.18027,-3.34316 4.35595,-3.98612 6.23848,-3.41172 3.44289,1.0505 5.60813,3.30016 6.87712,7.14526 1.40521,4.25781 0.62331,7.56206 -3.13479,13.24741 -3.27951,4.96133 -3.81268,10.09562 -1.26755,12.20612 1.1656,0.96655 4.68964,1.37244 11.91593,1.37244 5.64347,0 10.61564,0.35446 11.04927,0.78769 0.43364,0.43323 0.80897,5.93605 0.83407,12.22848 l 0.0456,11.44079 4.80432,4.41235 c 2.64237,2.4268 5.79237,4.42465 7,4.43968 1.20762,0.015 4.22068,0.21582 6.69568,0.4462 4.22509,0.39329 4.48733,0.59013 4.29253,3.22212 -0.41817,5.65006 -8.97217,10.40588 -10.68554,5.9409 z M 238.9655,53.649275 c 3.44683,-1.758437 6.14396,-5.017598 4.15234,-5.017598 -2.29511,0 -13.58817,4.447623 -15.85683,6.245005 -4.09102,3.241178 4.76594,2.312381 11.70449,-1.227407 z m -36.53661,0.410654 c 1.29474,-1.294739 1.45684,-3.066672 0.91975,-10.053956 -0.59844,-7.785586 -0.49581,-8.526535 1.24969,-9.021945 1.04592,-0.296855 2.9484,-1.847575 4.22773,-3.446044 2.61306,-3.264902 1.72648,-3.663327 -3.92684,-1.764703 -7.3392,2.464818 -8.57258,5.835401 -6.36237,17.387126 0.80473,4.205963 1.46315,7.832621 1.46315,8.059238 0,0.808779 0.88109,0.388089 2.42889,-1.159716 z M 280.24956,201.7472 c -4.31907,-3.94801 -5.36243,-6.75124 -2.86895,-7.70808 1.55824,-0.59795 15.65589,1.89554 19.95223,3.52901 4.07465,1.54918 3.13968,4.27197 -1.82085,5.30261 -2.18759,0.45452 -4.41272,1.26167 -4.94472,1.79367 -2.06564,2.06564 -6.12088,0.91908 -10.31771,-2.91721 z m -25.54317,-7.7923 c -0.98649,-0.26767 -4.7395,-2.4621 -8.34003,-4.87652 -3.60053,-2.41442 -8.19341,-4.69826 -10.20639,-5.0752 -2.01298,-0.37694 -5.05602,-1.268 -6.7623,-1.98014 -2.36145,-0.98558 -3.95243,-1.0339 -6.66198,-0.20231 -5.81476,1.7846 -8.53159,-0.25029 -5.0211,-3.76078 1.51116,-1.51117 3.20181,-1.63816 14.25,-1.07036 14.86646,0.76403 18.41959,1.62472 23.05243,5.58413 2.80545,2.39764 3.1128,2.98458 1.57997,3.01732 -1.75811,0.0376 -1.73186,0.18907 0.34464,1.99001 1.78158,1.54516 2.61893,1.7175 4.03822,0.83114 2.73664,-1.70906 8.21921,0.82289 7.82104,3.61189 -0.26484,1.85512 -1.01966,2.12616 -6.30089,2.26254 -3.3,0.0852 -6.80712,-0.0641 -7.79361,-0.33172 z M 246.75,40.925944 c 1.2375,-0.238353 3.2625,-0.238353 4.5,0 1.2375,0.238353 0.225,0.433369 -2.25,0.433369 -2.475,0 -3.4875,-0.195016 -2.25,-0.433369 z"
     id="path3348"
     inkscape:connector-curvature="0" />
</svg>
